<svg xmlns="http://www.w3.org/2000/svg" width="249.781" height="197.759" viewBox="0 0 249.781 197.759">
  <g id="Group_30" data-name="Group 30" transform="translate(-550.584 -1079.579)">
    <ellipse id="Ellipse_34" data-name="Ellipse 34" cx="57.342" cy="8.605" rx="57.342" ry="8.605" transform="translate(577.79 1113.084) rotate(-1.15)" fill="#191717"/>
    <circle id="Ellipse_35" data-name="Ellipse 35" cx="10.451" cy="10.451" r="10.451" transform="translate(683.063 1197.896)" fill="#fad604" stroke="#191717" stroke-linecap="round" stroke-linejoin="round" stroke-width="1.5"/>
    <path id="Path_210" data-name="Path 210" d="M783.575,1191.177s21.769-7.216,29.044,16.781c2.309,3.463,18.3,32.095,18.3,32.095" transform="translate(-37.224 -17.583)" fill="none" stroke="#191717" stroke-linecap="round" stroke-linejoin="round" stroke-width="1"/>
    <line id="Line_77" data-name="Line 77" x2="16.067" y2="26.737" transform="translate(774.983 1196.574)" fill="none" stroke="#191717" stroke-linecap="round" stroke-linejoin="round" stroke-width="1"/>
    <path id="Path_211" data-name="Path 211" d="M808.916,1214.553l16.411,26.166a1.086,1.086,0,0,0,1.128.488l2.022-.4a6.1,6.1,0,0,0,2.27-.955l.619-.426a1.16,1.16,0,0,0,.364-1.512c-2.724-5.016-15.8-29.1-19.231-35.391-3.83-7.031-8.4-14.36-17.263-14.412s-11.857,1.253-11.857,1.253" transform="translate(-37.193 -17.253)" fill="none" stroke="#191717" stroke-linecap="round" stroke-linejoin="round" stroke-width="1"/>
    <path id="Path_212" data-name="Path 212" d="M821.691,1240.831l10.181.985c1.67-1.222,1.688-3.74,0-6.993s-15.751-29.629-15.751-29.629-6.781-18.178-18.306-18.68c-10.5-.458-14.434,1.626-14.434,1.626" transform="translate(-37.193 -16.987)" fill="none" stroke="#191717" stroke-linecap="round" stroke-linejoin="round" stroke-width="1"/>
    <path id="Path_213" data-name="Path 213" d="M817.146,1248.57l-9.865,8.236-33.439,1.822-1-18.89a15.943,15.943,0,0,1,1.965,2.653,2.944,2.944,0,0,0,1.7,1.326,3.09,3.09,0,0,0,1.494.118l22.114-3.694a3.174,3.174,0,0,0,2.552-3.845.132.132,0,0,0-.008-.034c-.025-.109-.059-.21-.092-.319q-.667-1.864-1.494-3.652c0-.008-.008-.008-.008-.017a44.627,44.627,0,0,0-78.355-5.079l-2.93-11.3,38.292-11.443,3.484-1.041c15.842-4.735,37.469,2.074,41.835,28.469C804.217,1232.87,817.146,1248.57,817.146,1248.57Z" transform="translate(-26.988 -19.485)" fill="#fad604" stroke="#191717" stroke-linecap="round" stroke-linejoin="round" stroke-width="2"/>
    <path id="Path_214" data-name="Path 214" d="M824.465,1248.57l-9.865,8.236-33.439,1.822-1-18.89a15.943,15.943,0,0,1,1.965,2.653,2.944,2.944,0,0,0,1.7,1.326l.588,11.838,28.855-1.9,6.574-5.944-9.856-11.418a.132.132,0,0,0-.008-.034c-.1-.26-.882-2.326-1.587-3.971,0-.008-.008-.008-.008-.017-.05-.118-.1-.235-.151-.344-7.489-33.371-35.773-25.413-35.773-25.413l-7.069-2.065,3.484-1.041c15.842-4.735,37.469,2.074,41.835,28.469C811.536,1232.87,824.465,1248.57,824.465,1248.57Z" transform="translate(-34.306 -19.485)" fill="#f26450" stroke="#191717" stroke-linecap="round" stroke-linejoin="round" stroke-width="1"/>
    <g id="Group_25" data-name="Group 25" transform="translate(609.486 1175.799)">
      <path id="Path_854" data-name="Path 854" d="M680.8,1251.253a21.392,21.392,0,0,0,8.678,9.9c2.283,1.22,3.5,6.577-3.42,6.051l-27.687-2.107c-5.627-.428-3.1-2.353-.3-14.4,1.656-7.163,6.043.46,12.341-.6S679.724,1248.491,680.8,1251.253Z" transform="translate(-626.08 -1202.596)" fill="#e82627" stroke="#191717" stroke-linecap="round" stroke-linejoin="round" stroke-width="2"/>
      <g id="Group_24" data-name="Group 24">
        <path id="Path_215" data-name="Path 215" d="M622.525,1195.752c-3.058,8.019-3.1,17.456,3.75,22.5,4.316,3.181,12.931,3.495,18.509,5.211,3.846,1.184,4.167-.239,4.551,3.227.433,3.906-.776,9.677-.432,13.438.213,2.337,1.076,3.593,3.571,3.6,7.6.011,16.284-.186,23.91-.411a3.242,3.242,0,0,0,3.473-2.943c1.37-6.391,1.463-10.12,2.625-16.64,1.068-5.988.278-10.581-2.472-16.467-2.26-4.838-5.978-8.166-13.2-10.715C652.8,1191.616,637.309,1195.263,622.525,1195.752Z" transform="translate(-620.552 -1193.997)" fill="#003586" stroke="#191717" stroke-linecap="round" stroke-linejoin="round" stroke-width="2"/>
      </g>
      <path id="Path_866" data-name="Path 866" d="M688.591,1257.526s-1.129-2.948-5.689-1.99c5.044-2.816,6.686-7.773,4.914-8.542s-4.546,4.751-4.935,8.414c-.392-2.148-5.5-9.4-7.673-7.217s7.574,7.307,7.574,7.307-4.717-2.825-7.233-.238-5.792-.856-5.747-1.928" transform="translate(-628.454 -1202.489)" fill="none" stroke="#191717" stroke-linecap="round" stroke-linejoin="round" stroke-width="2"/>
    </g>
    <path id="Path_216" data-name="Path 216" d="M676.413,1258.827H675l-1.02,8.58c0,.563.856,1.019,1.912,1.019s1.912-.456,1.912-1.019Z" transform="translate(-19.638 -28.6)" fill="#fff" stroke="#191717" stroke-miterlimit="10" stroke-width="2"/>
    <rect id="Rectangle_19" data-name="Rectangle 19" width="13.748" height="3.708" rx="1.25" transform="translate(649.219 1226.678)" fill="#fff" stroke="#191717" stroke-miterlimit="10" stroke-width="2"/>
    <path id="Path_217" data-name="Path 217" d="M779.286,1153.772l19.708,26.584a.493.493,0,0,0,.688.1l1.2-.884a.493.493,0,0,0,.1-.691l-19.711-26.518a.493.493,0,0,0-.674-.113l-1.2.818A.492.492,0,0,0,779.286,1153.772Z" transform="translate(-36.52 -11.487)" fill="#fff" stroke="#191717" stroke-linecap="round" stroke-linejoin="round" stroke-width="0.75"/>
    <path id="Path_218" data-name="Path 218" d="M764.164,1161.96l1.006.447a.506.506,0,0,0,.521-.066l23.231-18.31a.509.509,0,0,0-.07-.845l-1.129-.62a.508.508,0,0,0-.564.05L764.052,1161.1A.508.508,0,0,0,764.164,1161.96Z" transform="translate(-34.061 -9.936)" fill="#fff" stroke="#191717" stroke-linecap="round" stroke-linejoin="round" stroke-width="0.75"/>
    <g id="Group_26" data-name="Group 26" transform="translate(559.823 1209.475)">
      <line id="Line_78" data-name="Line 78" y1="60.292" transform="translate(33.556 3.411)" fill="#fff" stroke="#191717" stroke-linecap="round" stroke-linejoin="round" stroke-width="1.5"/>
      <line id="Line_79" data-name="Line 79" y1="42.633" x2="42.633" transform="translate(12.24 12.24)" fill="#fff" stroke="#191717" stroke-linecap="round" stroke-linejoin="round" stroke-width="1.5"/>
      <line id="Line_80" data-name="Line 80" x2="60.292" transform="translate(3.41 33.556)" fill="#fff" stroke="#191717" stroke-linecap="round" stroke-linejoin="round" stroke-width="1.5"/>
      <line id="Line_81" data-name="Line 81" x2="42.633" y2="42.633" transform="translate(12.24 12.24)" fill="#fff" stroke="#191717" stroke-linecap="round" stroke-linejoin="round" stroke-width="1.5"/>
      <line id="Line_82" data-name="Line 82" x1="23.399" y1="55.566" transform="translate(21.857 5.773)" fill="#fff" stroke="#191717" stroke-linecap="round" stroke-linejoin="round" stroke-width="1.5"/>
      <line id="Line_83" data-name="Line 83" y1="55.836" x2="22.746" transform="translate(22.183 5.638)" fill="#fff" stroke="#191717" stroke-linecap="round" stroke-linejoin="round" stroke-width="1.5"/>
      <line id="Line_84" data-name="Line 84" y1="23.399" x2="55.566" transform="translate(5.773 21.857)" fill="#fff" stroke="#191717" stroke-linecap="round" stroke-linejoin="round" stroke-width="1.5"/>
      <line id="Line_85" data-name="Line 85" x2="55.836" y2="22.746" transform="translate(5.638 22.184)" fill="#fff" stroke="#191717" stroke-linecap="round" stroke-linejoin="round" stroke-width="1.5"/>
      <path id="Path_219" data-name="Path 219" d="M594.954,1234.11a33.556,33.556,0,1,0,33.557,33.557A33.556,33.556,0,0,0,594.954,1234.11Zm0,63.607A30.051,30.051,0,1,1,625,1267.667,30.051,30.051,0,0,1,594.954,1297.717Z" transform="translate(-561.398 -1234.11)" fill="#191717" stroke="#191717" stroke-linecap="round" stroke-linejoin="round" stroke-width="1.5"/>
    </g>
    <g id="Group_27" data-name="Group 27" transform="translate(700.028 1209.475)">
      <line id="Line_86" data-name="Line 86" y1="60.292" transform="translate(33.556 3.411)" fill="#fff" stroke="#191717" stroke-linecap="round" stroke-linejoin="round" stroke-width="1.5"/>
      <line id="Line_87" data-name="Line 87" y1="42.633" x2="42.633" transform="translate(12.24 12.24)" fill="#fff" stroke="#191717" stroke-linecap="round" stroke-linejoin="round" stroke-width="1.5"/>
      <line id="Line_88" data-name="Line 88" x2="60.292" transform="translate(3.41 33.556)" fill="#fff" stroke="#191717" stroke-linecap="round" stroke-linejoin="round" stroke-width="1.5"/>
      <line id="Line_89" data-name="Line 89" x2="42.633" y2="42.633" transform="translate(12.24 12.24)" fill="#fff" stroke="#191717" stroke-linecap="round" stroke-linejoin="round" stroke-width="1.5"/>
      <line id="Line_90" data-name="Line 90" x1="23.399" y1="55.566" transform="translate(21.857 5.773)" fill="#fff" stroke="#191717" stroke-linecap="round" stroke-linejoin="round" stroke-width="1.5"/>
      <line id="Line_91" data-name="Line 91" y1="55.836" x2="22.746" transform="translate(22.183 5.638)" fill="#fff" stroke="#191717" stroke-linecap="round" stroke-linejoin="round" stroke-width="1.5"/>
      <line id="Line_92" data-name="Line 92" y1="23.399" x2="55.566" transform="translate(5.773 21.857)" fill="#fff" stroke="#191717" stroke-linecap="round" stroke-linejoin="round" stroke-width="1.5"/>
      <line id="Line_93" data-name="Line 93" x2="55.836" y2="22.746" transform="translate(5.638 22.184)" fill="#fff" stroke="#191717" stroke-linecap="round" stroke-linejoin="round" stroke-width="1.5"/>
      <path id="Path_220" data-name="Path 220" d="M761.954,1234.11a33.556,33.556,0,1,0,33.557,33.557A33.556,33.556,0,0,0,761.954,1234.11Zm0,63.607A30.051,30.051,0,1,1,792,1267.667,30.051,30.051,0,0,1,761.954,1297.717Z" transform="translate(-728.398 -1234.11)" fill="#191717" stroke="#191717" stroke-linecap="round" stroke-linejoin="round" stroke-width="1.5"/>
    </g>
    <path id="Path_221" data-name="Path 221" d="M593.377,1224.3a41.8,41.8,0,0,0-41.793,41.793q0,.933.039,1.859a1.575,1.575,0,0,0,2.391,1.264l1.986-1.2c-.034-.638-.05-1.276-.05-1.922a37.433,37.433,0,0,1,74.669-3.82H635A41.79,41.79,0,0,0,593.377,1224.3Z" transform="translate(0 -23.06)" fill="#fad604" stroke="#191717" stroke-linecap="round" stroke-linejoin="round" stroke-width="2"/>
    <path id="Path_222" data-name="Path 222" d="M565.573,1242.277l30.051,26.7,122.972-6.756a5.137,5.137,0,0,0,4.812-5.8l-1.15-8.762" transform="translate(-2.245 -25.945)" fill="none" stroke="#191717" stroke-linecap="round" stroke-linejoin="round" stroke-width="3"/>
    <path id="Path_223" data-name="Path 223" d="M601.367,1265.707l50.924-43.809,35.775,39.046" transform="translate(-7.988 -22.675)" fill="none" stroke="#191717" stroke-linecap="round" stroke-linejoin="round" stroke-width="3"/>
    <circle id="Ellipse_36" data-name="Ellipse 36" cx="10.145" cy="10.145" r="10.145" transform="translate(646.106 1229.682)" fill="none" stroke="#191717" stroke-linecap="round" stroke-linejoin="round" stroke-width="2"/>
    <circle id="Ellipse_37" data-name="Ellipse 37" cx="5.432" cy="5.432" r="5.432" transform="translate(587.948 1237.6)" fill="none" stroke="#191717" stroke-linecap="round" stroke-linejoin="round" stroke-width="2"/>
    <path id="Path_224" data-name="Path 224" d="M663.2,1258.178a10.135,10.135,0,0,0-2.436.307l-60.435,7.611a5.431,5.431,0,0,0,0,10.863l62.871,1.508a10.145,10.145,0,0,0,0-20.289Z" transform="translate(-6.95 -28.496)" fill="none" stroke="#191717" stroke-linecap="round" stroke-linejoin="round" stroke-width="2"/>
    <path id="Path_225" data-name="Path 225" d="M699.038,1216.915l0,1.268a.844.844,0,0,1-.857.842l-8.635-.145a.843.843,0,0,1-.829-.849l.008-1.242a.843.843,0,0,1,.855-.837l8.627.118A.842.842,0,0,1,699.038,1216.915Z" transform="translate(-22.003 -21.721)" fill="#fff" stroke="#191717" stroke-miterlimit="10" stroke-width="2"/>
    <path id="Path_226" data-name="Path 226" d="M751,1263.624l-62.956,3-18.083-5.862-9.832-49.617,11.334-2.226" transform="translate(-17.416 -20.592)" fill="none" stroke="#191717" stroke-linecap="round" stroke-linejoin="round" stroke-width="3"/>
    <path id="Path_227" data-name="Path 227" d="M681.715,1217.81c-5.233-.6-7.073,5.416-8.585,9.187a15.232,15.232,0,0,1-12.036,9.561c-5.045.836-10.619-.51-13.987-4.55" transform="translate(-15.327 -22.012)" fill="none" stroke="#191717" stroke-linecap="round" stroke-linejoin="round" stroke-width="3"/>
    <path id="Path_228" data-name="Path 228" d="M667.754,1207.66s1.128-.053,2.545-.21.63-.709,2.938-1.023,4.09-.413,4.574-.453.5-.545-.1-.505-1.4.2-1.469-.315.551-.669,1.285-.669.827.5.04.473-2.151.315-2.321-.223.734-.905,1.745-1.141,1.233.446.21.7-2.2-.079-2.348-.616.761-1.01,1.889-1.247,1.259.407.236.6-2.361-.065-2.558-.525.918-1.18,2.033-1.443,1.22.8.236,1.01-2.387-.065-2.557-.721,1.6-1.626,3.1-1.141" transform="translate(-18.64 -19.174)" fill="none" stroke="#fff" stroke-linecap="round" stroke-linejoin="round" stroke-width="0.5"/>
    <path id="Path_229" data-name="Path 229" d="M654.836,1203.253c1.312-.866,3.278-.4,3.288.276s-1.269,1.317-2.273,1.377-1.186-.993-.041-1.037,2.411.355,2.344.85-1.288,1.1-2.326,1.187-1.083-.573.067-.645,2.148.141,2.153.7-1.047,1.187-2.1,1.219-1.019-.684.018-.726,2.007.072,1.986.635-1.427.6-2.179.834-.8-.27-.088-.466,1.344-.208,1.417.3-.74.572-1.332.694-.44.6.038.513,2.239-.349,4.529-.781c1.044-.2,1.857.158,3.365.092" transform="translate(-16.567 -19.608)" fill="none" stroke="#fff" stroke-linecap="round" stroke-linejoin="round" stroke-width="0.5"/>
    <path id="Path_230" data-name="Path 230" d="M663.148,1205.036l.733,3.378a.813.813,0,0,0,.939.629l3.359-.6a.815.815,0,0,0,.657-.944l-.453-2.526a.812.812,0,0,0-.745-.668l-3.639-.25A.814.814,0,0,0,663.148,1205.036Z" transform="translate(-17.898 -19.811)" fill="#fff"/>
    <path id="Path_231" data-name="Path 231" d="M649.5,1199.442h0a1.956,1.956,0,0,0,1.874,2.517h7.213a1.948,1.948,0,0,1,.756.152l5.1,2.138a1.956,1.956,0,0,0,2.036-.324l9.832-8.5a1.957,1.957,0,0,0-.073-3.021l-.775-.607a1.958,1.958,0,0,0-2.135-.182l-10.133,5.465a1.956,1.956,0,0,1-.8.23l-11.148.735A1.956,1.956,0,0,0,649.5,1199.442Z" transform="translate(-15.697 -17.779)" fill="#191717"/>
    <path id="Path_232" data-name="Path 232" d="M676.413,1278.714H675l-1.02-8.579c0-.563.856-1.02,1.912-1.02s1.912.457,1.912,1.02Z" transform="translate(-19.638 -30.251)" fill="#fff" stroke="#191717" stroke-miterlimit="10" stroke-width="2"/>
    <rect id="Rectangle_20" data-name="Rectangle 20" width="13.748" height="3.708" rx="1.25" transform="translate(649.219 1248.304)" fill="#fff" stroke="#191717" stroke-miterlimit="10" stroke-width="2"/>
    <circle id="Ellipse_38" data-name="Ellipse 38" cx="5.345" cy="5.345" r="5.345" transform="translate(648.844 1213.04)" fill="none" stroke="#191717" stroke-linecap="round" stroke-linejoin="round" stroke-width="2"/>
    <circle id="Ellipse_39" data-name="Ellipse 39" cx="3.473" cy="3.473" r="3.473" transform="translate(682.596 1182.121)" fill="none" stroke="#191717" stroke-linecap="round" stroke-linejoin="round" stroke-width="2"/>
    <path id="Path_233" data-name="Path 233" d="M715.787,1228.353,698.706,1186a2.428,2.428,0,0,0-2.492-1.508l-1.351.135" transform="translate(-22.99 -16.671)" fill="none" stroke="#191717" stroke-linecap="round" stroke-linejoin="round" stroke-width="2"/>
    <path id="Path_234" data-name="Path 234" d="M694.5,1183.934l.106,1.264a.843.843,0,0,1-.783.911l-8.615.588a.843.843,0,0,1-.9-.776l-.1-1.238a.844.844,0,0,1,.781-.907l8.606-.612A.843.843,0,0,1,694.5,1183.934Z" transform="translate(-21.281 -16.46)" fill="#fff" stroke="#191717" stroke-miterlimit="10" stroke-width="2"/>
    <path id="Path_235" data-name="Path 235" d="M703.015,1193.583h8.357l-5.751,6.461h6.825" transform="translate(-24.298 -18.132)" fill="none" stroke="#191717" stroke-linecap="round" stroke-linejoin="round" stroke-width="2"/>
    <line id="Line_94" data-name="Line 94" x1="8.891" y1="33.296" transform="translate(686.894 1174.302)" fill="none" stroke="#191717" stroke-linecap="round" stroke-linejoin="round" stroke-width="2"/>
    <path id="Path_236" data-name="Path 236" d="M799.741,1240.956l-22.114,3.694a3.117,3.117,0,0,1-3.2-1.444,15.943,15.943,0,0,0-1.965-2.653v-.008a16.645,16.645,0,0,0-26.832,3.005,3.088,3.088,0,0,1-3.073,1.5l-22.357-2.67a3.164,3.164,0,0,1-2.636-4.089,44.711,44.711,0,0,1,42.565-31.2,44.65,44.65,0,0,1,42.061,29.661A3.173,3.173,0,0,1,799.741,1240.956Z" transform="translate(-26.609 -20.3)" fill="#fff" stroke="#191717" stroke-miterlimit="10" stroke-width="1.5"/>
    <line id="Line_95" data-name="Line 95" y2="4.78" transform="translate(740.953 1182.633)" fill="none" stroke="#191717" stroke-miterlimit="10" stroke-width="2"/>
    <line id="Line_96" data-name="Line 96" x2="0.737" y2="6.646" transform="translate(748.819 1183.119)" fill="none" stroke="#191717" stroke-miterlimit="10" stroke-width="2"/>
    <path id="Path_237" data-name="Path 237" d="M718.351,1194.489l14.68-3.675,7.759-2.327a22.833,22.833,0,0,1,11.192-.49l2.36.488a18.88,18.88,0,0,0,4.3.386l9.072-.226,3.379.35" transform="translate(-26.758 -17.16)" fill="none" stroke="#191717" stroke-linecap="round" stroke-linejoin="round" stroke-width="1"/>
    <path id="Path_238" data-name="Path 238" d="M718.936,1196.567l14.68-3.674,7.759-2.328a22.844,22.844,0,0,1,11.192-.49l2.36.489a18.9,18.9,0,0,0,4.3.385l9.071-.226,3.38.35" transform="translate(-26.852 -17.493)" fill="none" stroke="#191717" stroke-linecap="round" stroke-linejoin="round" stroke-width="1"/>
    <line id="Line_97" data-name="Line 97" x2="7.335" y2="11.521" transform="translate(701.149 1176.805)" fill="none" stroke="#191717" stroke-linecap="round" stroke-linejoin="round" stroke-width="1"/>
    <line id="Line_98" data-name="Line 98" y1="3.376" x2="9.945" transform="translate(693.346 1180.17)" fill="none" stroke="#191717" stroke-linecap="round" stroke-linejoin="round" stroke-width="1"/>
    <path id="Path_239" data-name="Path 239" d="M722.415,1209.155,734,1205.084l5.434-1.558" transform="translate(-27.41 -19.727)" fill="none" stroke="#191717" stroke-linecap="round" stroke-linejoin="round" stroke-width="1"/>
    <path id="Path_240" data-name="Path 240" d="M732.553,1194.1s.484,3.7,6.412,2.235,16.161-4.146,16.161-4.146,6.619-1.656,6.511,6.675" transform="translate(-29.037 -17.887)" fill="none" stroke="#191717" stroke-linecap="round" stroke-linejoin="round" stroke-width="1"/>
    <path id="Path_241" data-name="Path 241" d="M736.5,1196.552s.109,3.669,4.832,2.514,9.812-2.514,9.812-2.514a5.192,5.192,0,0,1,4.223-4.361c1.812,2.258-.048,5.109-3.488,5.092,0,0,4.617-.614,5.533,2.961.443-3.492,4.588-4.257,4.588-4.257s-5.031,1.815-5.87-4.032c0,0,4.145-.935,5.667-.322s3.463,3.2,2.125,6.629" transform="translate(-29.67 -17.785)" fill="none" stroke="#191717" stroke-linecap="round" stroke-linejoin="round" stroke-width="1"/>
    <path id="Path_242" data-name="Path 242" d="M756.641,1202.311s-2.647-.42-2.7-4.779" transform="translate(-32.469 -18.765)" fill="none" stroke="#191717" stroke-linecap="round" stroke-linejoin="round" stroke-width="1"/>
    <path id="Path_243" data-name="Path 243" d="M752.29,1200.934s-5.245,1.525-7.816,2.154a3.383,3.383,0,0,1-4.407-2.3" transform="translate(-30.243 -19.288)" fill="none" stroke="#191717" stroke-linecap="round" stroke-linejoin="round" stroke-width="1"/>
    <path id="Path_244" data-name="Path 244" d="M746.393,1205.945s-1.583-.033-2.264-2.234" transform="translate(-30.894 -19.757)" fill="none" stroke="#191717" stroke-linecap="round" stroke-linejoin="round" stroke-width="1"/>
    <path id="Path_245" data-name="Path 245" d="M779.771,1193.75s-8.594.742-10.383.986" transform="translate(-34.947 -18.159)" fill="none" stroke="#191717" stroke-linecap="round" stroke-linejoin="round" stroke-width="1"/>
    <line id="Line_99" data-name="Line 99" x1="10.017" y2="1.704" transform="translate(734.595 1177.573)" fill="none" stroke="#191717" stroke-linecap="round" stroke-linejoin="round" stroke-width="1"/>
    <path id="Path_246" data-name="Path 246" d="M766.486,1164.255s.986-5.83-3.968-5.318c-4.058.42-1.119,9.865-.42,13.363s2.519,11.964,2.519,11.964" transform="translate(-33.508 -12.568)" fill="none" stroke="#191717" stroke-linecap="round" stroke-linejoin="round" stroke-width="1"/>
    <path id="Path_247" data-name="Path 247" d="M767.822,1164.255s-.986-5.83,3.967-5.318c4.058.42,1.12,9.865.42,13.363s-3.085,11.916-3.085,11.916" transform="translate(-34.683 -12.568)" fill="none" stroke="#191717" stroke-linecap="round" stroke-linejoin="round" stroke-width="1"/>
    <circle id="Ellipse_40" data-name="Ellipse 40" cx="0.91" cy="0.91" r="0.91" transform="translate(743.026 1140.32)" fill="#fff" stroke="#191717" stroke-miterlimit="10" stroke-width="1"/>
    <rect id="Rectangle_21" data-name="Rectangle 21" width="2.519" height="4.128" rx="1.125" transform="translate(762.453 1166.379)" fill="#fff" stroke="#191717" stroke-linecap="round" stroke-linejoin="round" stroke-width="1"/>
    <circle id="Ellipse_41" data-name="Ellipse 41" cx="0.91" cy="0.91" r="0.91" transform="translate(762.803 1166.897)" fill="#fff" stroke="#191717" stroke-miterlimit="10" stroke-width="1"/>
    <path id="Path_248" data-name="Path 248" d="M766.683,1185.285l.8-.017a.91.91,0,0,0,.89-.881l.557-18.173a.909.909,0,0,0-.909-.937h-1.358a.909.909,0,0,0-.909.909v18.19A.908.908,0,0,0,766.683,1185.285Z" transform="translate(-34.364 -13.59)" fill="#fff" stroke="#191717" stroke-linecap="round" stroke-linejoin="round" stroke-width="0.75"/>
    <path id="Path_249" data-name="Path 249" d="M738.233,1184.923l8.054-25.167a.476.476,0,0,1,.6-.308l1.473.476a.476.476,0,0,1,.306.6l-7.762,24.162a.475.475,0,0,1-.317.311l-1.764.529A.476.476,0,0,1,738.233,1184.923Z" transform="translate(-29.945 -12.651)" fill="#fff" stroke="#191717" stroke-linecap="round" stroke-linejoin="round" stroke-width="0.75"/>
    <path id="Path_250" data-name="Path 250" d="M727.359,1154.287l32.95,11.27a.577.577,0,0,0,.674-.243l.579-.933a.577.577,0,0,0-.31-.852l-32.961-11.09a.575.575,0,0,0-.641.2l-.568.752A.577.577,0,0,0,727.359,1154.287Z" transform="translate(-28.14 -11.525)" fill="#fff" stroke="#191717" stroke-linecap="round" stroke-linejoin="round" stroke-width="0.75"/>
    <circle id="Ellipse_42" data-name="Ellipse 42" cx="0.91" cy="0.91" r="0.91" transform="translate(732.069 1152.421)" fill="#fff" stroke="#191717" stroke-miterlimit="10" stroke-width="1"/>
    <circle id="Ellipse_43" data-name="Ellipse 43" cx="0.91" cy="0.91" r="0.91" transform="translate(716.24 1147.503)" fill="#fff" stroke="#191717" stroke-miterlimit="10" stroke-width="1"/>
    <path id="Path_251" data-name="Path 251" d="M713.45,1194.648l3.625-.9,4.682,16.6,44.349-13.513,1.259,3.951s-3.537.314-19.286,5.021l-29.31,8.758Z" transform="translate(-25.972 -18.159)" fill="#fad604" stroke="#191717" stroke-linecap="round" stroke-linejoin="round" stroke-width="2"/>
    <path id="Path_252" data-name="Path 252" d="M783.575,1196.04s17.151-3.988,22.608,14.342" transform="translate(-37.224 -18.467)" fill="none" stroke="#191717" stroke-linecap="round" stroke-linejoin="round" stroke-width="1"/>
    <path id="Path_253" data-name="Path 253" d="M783.575,1193.651s19.523-6.13,24.84,14.439" transform="translate(-37.224 -18.006)" fill="none" stroke="#191717" stroke-linecap="round" stroke-linejoin="round" stroke-width="1"/>
    <g id="Group_226" data-name="Group 226" transform="translate(600.91 1089.408)">
      <path id="Path_854-2" data-name="Path 854" d="M674.131,1259.7a21.39,21.39,0,0,0,10.4,8.064c2.473.762,4.688,5.79-2.205,6.59l-27.582,3.2c-5.6.651-3.488-1.72-3.037-14.079.261-7.347,6.02-.7,12-2.939S672.551,1257.189,674.131,1259.7Z" transform="translate(-616.853 -1117.918)" fill="#e82627" stroke="#191717" stroke-linecap="round" stroke-linejoin="round" stroke-width="2"/>
      <g id="Group_28" data-name="Group 28" transform="translate(7.987 88.046)">
        <path id="Path_254" data-name="Path 254" d="M621.824,1196.069c-3.058,8.019-3.1,17.456,3.749,22.5,4.317,3.181,8.422,4.841,11.722,7.145s3.813,4.115,4.2,7.58c.433,3.906.185,10.043.529,13.8.213,2.336,1.075,3.594,3.571,3.6,7.6.012,16.284-.186,23.91-.411a3.242,3.242,0,0,0,3.473-2.943c1.37-6.391,2.82-11.1,3.983-17.623,1.067-5.988.277-10.582-2.472-16.467-2.26-4.838-6.389-11.019-8.382-16.385C651.255,1197.057,636.607,1195.579,621.824,1196.069Z" transform="translate(-619.85 -1195.969)" fill="#003586" stroke="#191717" stroke-linecap="round" stroke-linejoin="round" stroke-width="2"/>
      </g>
      <path id="Path_860" data-name="Path 860" d="M622.294,1199.224a88.749,88.749,0,0,0,47.257.179,3.657,3.657,0,0,0,2.647-3.421c.285-12.754-4.88-31.394-8.419-35.457-2.115-2.429-33.617-2.346-35.769.061-2.11,2.36-10.479,23.55-7.891,36.262A3.1,3.1,0,0,0,622.294,1199.224Z" transform="translate(-611.828 -1101.95)" fill="#fff" stroke="#191717" stroke-miterlimit="10" stroke-width="2"/>
      <path id="Path_855" data-name="Path 855" d="M668.951,1117.265s3.873,1.573,3-8.292c-.524-5.908-2.954-8.636-10.4-13.748s-30.954-7.73-36.542,5.939c-6.191-2.887-10.481,3.547-13.167,12.47-3.258,10.808-1.159,16.113,5.613,22.259S667.656,1147.828,668.951,1117.265Z" transform="translate(-610.337 -1091.095)" fill="#191717"/>
      <path id="Path_861" data-name="Path 861" d="M617.774,1130.226a29.567,29.567,0,0,0,10.063,22.448,3.68,3.68,0,0,0,1.6.6c7.66,1.967,23.257,2.126,31.219,0a3.753,3.753,0,0,0,1.6-.6,29.573,29.573,0,0,0,10.064-22.448c0-15.981-12.21-28.932-27.269-28.932S617.774,1114.241,617.774,1130.226Z" transform="translate(-611.53 -1092.732)" fill="#be7770" stroke="#191717" stroke-linecap="round" stroke-linejoin="round" stroke-width="2"/>
      <ellipse id="Ellipse_99" data-name="Ellipse 99" cx="4.945" cy="4.865" rx="4.945" ry="4.865" transform="translate(17.053 32.28)" fill="#fff"/>
      <ellipse id="Ellipse_100" data-name="Ellipse 100" cx="3.281" cy="3.267" rx="3.281" ry="3.267" transform="translate(18.395 33.877)" fill="#191717"/>
      <ellipse id="Ellipse_101" data-name="Ellipse 101" cx="4.945" cy="4.865" rx="4.945" ry="4.865" transform="translate(41.936 32.28)" fill="#fff"/>
      <ellipse id="Ellipse_102" data-name="Ellipse 102" cx="3.281" cy="3.267" rx="3.281" ry="3.267" transform="translate(43.279 33.877)" fill="#191717"/>
      <path id="Path_862" data-name="Path 862" d="M670.475,1117.563a9.337,9.337,0,0,0-9.514-1.68c-5.4,2.191-6.542,9.341-6.138,13.874s2.634,9.768-1,10.382-5,.05-5,.05" transform="translate(-616.511 -1094.972)" fill="none" stroke="#191717" stroke-linecap="round" stroke-linejoin="round" stroke-width="2"/>
      <path id="Path_863" data-name="Path 863" d="M641.339,1114.954s-7.056-3.654-11.241,2.518" transform="translate(-613.508 -1094.751)" fill="none" stroke="#191717" stroke-linecap="round" stroke-linejoin="round" stroke-width="2"/>
      <path id="Path_864" data-name="Path 864" d="M656.245,1149.551s-4.794,1.973-11.844,0" transform="translate(-615.803 -1100.475)" fill="none" stroke="#191717" stroke-linecap="round" stroke-linejoin="round" stroke-width="2"/>
      <path id="Path_866-2" data-name="Path 866" d="M682.669,1264.248s-1.671-2.679-5.964-.871c4.415-3.724,5.083-8.9,3.2-9.321s-3.558,5.53-3.242,9.2c-.794-2.033-7.19-8.175-8.908-5.622s8.826,5.731,8.826,5.731-5.169-1.875-7.145,1.144-5.849.264-6.009-.8" transform="translate(-618.855 -1117.24)" fill="none" stroke="#191717" stroke-linecap="round" stroke-linejoin="round" stroke-width="2"/>
      <path id="Path_255" data-name="Path 255" d="M673.094,1179.634l6.234-1.24a14.225,14.225,0,0,1,11.3,2.122h0a4.915,4.915,0,0,1,2.063,4.481l-.143,1.509a4.917,4.917,0,0,1-2.757,3.965l-5.892,2.844a4.915,4.915,0,0,1-5.039-.458l-.124-.091a4.917,4.917,0,0,0-4.138-.79h0a4.888,4.888,0,0,1-6.152-4.654,11.858,11.858,0,0,1,1.115-4.869A4.938,4.938,0,0,1,673.094,1179.634Z" transform="translate(-619.661 -1105.048)" fill="#be7770" stroke="#191717" stroke-linecap="round" stroke-linejoin="round" stroke-width="2"/>
      <path id="Path_256" data-name="Path 256" d="M625,1179.632s1.091,5.518,6.786,13.044c8.934,11.8,27.493,7.786,34.672,3.592,2.151-7.96-1.876-18.738-1.876-18.738s-7.995,1.053-10.106,0c-1.966-.978-3.592-4.239-3.766-6.506" transform="translate(-612.691 -1103.921)" fill="#fff" stroke="#191717" stroke-linecap="round" stroke-linejoin="round" stroke-width="2"/>
      <path id="Path_257" data-name="Path 257" d="M693.563,1186.558s2.5,5.376-.6,7.1-5.438-2.056-5.438-2.056" transform="translate(-622.722 -1106.413)" fill="#be7770" stroke="#191717" stroke-linecap="round" stroke-linejoin="round" stroke-width="2"/>
      <path id="Path_258" data-name="Path 258" d="M689.458,1189.715s2.286,4.907-.812,6.632-6.109-3.093-6.109-3.093" transform="translate(-621.922 -1106.919)" fill="#be7770" stroke="#191717" stroke-linecap="round" stroke-linejoin="round" stroke-width="2"/>
      <path id="Path_259" data-name="Path 259" d="M684.672,1191.887s1.943,3.1-1.172,4.59c-1.906.913-4.469-.777-5.055-2.755" transform="translate(-621.265 -1107.268)" fill="#be7770" stroke="#191717" stroke-linecap="round" stroke-linejoin="round" stroke-width="2"/>
      <path id="Path_260" data-name="Path 260" d="M677.573,1191.6a2.432,2.432,0,0,1,1.17,2.286" transform="translate(-621.125 -1107.222)" fill="#be7770" stroke="#191717" stroke-linecap="round" stroke-linejoin="round" stroke-width="2"/>
    </g>
    <circle id="Ellipse_44" data-name="Ellipse 44" cx="3.799" cy="3.799" r="3.799" transform="translate(768.811 1189.808)" fill="none" stroke="#191717" stroke-linecap="round" stroke-linejoin="round" stroke-width="1"/>
    <path id="Path_261" data-name="Path 261" d="M787.516,1202.359l1.669-.7V1199.5h1.889v2.7l-1.2.751" transform="translate(-37.856 -19.081)" fill="#fad604" stroke="#191717" stroke-linecap="round" stroke-linejoin="round" stroke-width="1"/>
    <path id="Path_262" data-name="Path 262" d="M838.461,1252.246l-5.8,1.234,2.593,3.149,5.982-1.419Z" transform="translate(-45.1 -27.544)" fill="#f26450" stroke="#191717" stroke-linecap="round" stroke-linejoin="round" stroke-width="1"/>
    <path id="Path_263" data-name="Path 263" d="M839.569,1251.82l3.277-2.231,3.227,3.358-3.07,2.44Z" transform="translate(-46.208 -27.118)" fill="#f26450" stroke="#191717" stroke-linecap="round" stroke-linejoin="round" stroke-width="1"/>
    <path id="Path_264" data-name="Path 264" d="M781.075,1199.174l-.378-10.437a.606.606,0,0,1,.605-.627h1.024a.605.605,0,0,1,.6.587l.312,10.515a.605.605,0,0,1-.653.621l-.959-.077A.606.606,0,0,1,781.075,1199.174Z" transform="translate(-36.762 -17.254)" fill="#fff" stroke="#191717" stroke-linecap="round" stroke-linejoin="round" stroke-width="1"/>
    <circle id="Ellipse_45" data-name="Ellipse 45" cx="1.557" cy="1.557" r="1.557" transform="translate(795.79 1224.355)" fill="#fff" stroke="#191717" stroke-miterlimit="10" stroke-width="1"/>
    <path id="Path_265" data-name="Path 265" d="M717.461,1232.983l-4.438,1.576-1.644-3.565,4.244-2.568" transform="translate(-25.64 -23.723)" fill="none" stroke="#191717" stroke-linecap="round" stroke-linejoin="round" stroke-width="1"/>
    <circle id="Ellipse_46" data-name="Ellipse 46" cx="1.195" cy="1.195" r="1.195" transform="translate(687.29 1206.91)" fill="#fff" stroke="#191717" stroke-miterlimit="10" stroke-width="1"/>
    <path id="Path_266" data-name="Path 266" d="M838.837,1209.8" transform="translate(-46.091 -20.734)" fill="#191717" stroke="#191717" stroke-linecap="round" stroke-linejoin="round" stroke-width="1.5"/>
    <path id="Path_267" data-name="Path 267" d="M792.673,1224.786s-1.225-14.284-18.086-16.955" transform="translate(-35.782 -20.418)" fill="none" stroke="#191717" stroke-linecap="round" stroke-linejoin="round" stroke-width="1"/>
    <line id="Line_100" data-name="Line 100" x2="8.344" transform="translate(758.797 1204.713)" fill="none" stroke="#191717" stroke-linecap="round" stroke-linejoin="round" stroke-width="1"/>
    <path id="Path_268" data-name="Path 268" d="M800.574,1235.122s4.209,3,4.7,6.217" transform="translate(-39.951 -24.797)" fill="none" stroke="#191717" stroke-linecap="round" stroke-linejoin="round" stroke-width="1"/>
    <path id="Path_269" data-name="Path 269" d="M731.806,1236.587s-2.951,5.523.453,10.16" transform="translate(-28.727 -25.032)" fill="none" stroke="#191717" stroke-linecap="round" stroke-linejoin="round" stroke-width="1"/>
    <path id="Path_270" data-name="Path 270" d="M737.985,1228.292s-6.282-2.162-10.565,1.082" transform="translate(-28.213 -23.588)" fill="none" stroke="#191717" stroke-linecap="round" stroke-linejoin="round" stroke-width="1"/>
    <path id="Path_271" data-name="Path 271" d="M759.92,1210.437s23.168-6.784,28.3,14.6" transform="translate(-33.428 -20.672)" fill="none" stroke="#191717" stroke-linecap="round" stroke-linejoin="round" stroke-width="1"/>
    <path id="Path_272" data-name="Path 272" d="M809.863,1244.363s2.749-.083,2.615-2.287-2.787-2.362-2.787-2.362" transform="translate(-41.414 -25.534)" fill="none" stroke="#191717" stroke-linecap="round" stroke-linejoin="round" stroke-width="1"/>
    <path id="Path_273" data-name="Path 273" d="M813.7,1237.62a2.54,2.54,0,0,1,1.576,2.633,1.877,1.877,0,0,1-2.268,1.487,2.877,2.877,0,0,1,1.042,2.938" transform="translate(-41.947 -25.198)" fill="none" stroke="#191717" stroke-linecap="round" stroke-linejoin="round" stroke-width="1"/>
    <circle id="Ellipse_47" data-name="Ellipse 47" cx="1.296" cy="1.296" r="1.296" transform="translate(703.533 1204.101)" fill="none" stroke="#191717" stroke-linecap="round" stroke-linejoin="round" stroke-width="1"/>
    <circle id="Ellipse_48" data-name="Ellipse 48" cx="1.337" cy="1.337" r="1.337" transform="translate(701.741 1206.101)" fill="none" stroke="#191717" stroke-linecap="round" stroke-linejoin="round" stroke-width="1"/>
    <circle id="Ellipse_49" data-name="Ellipse 49" cx="1.337" cy="1.337" r="1.337" transform="translate(704.522 1206.433)" fill="none" stroke="#191717" stroke-linecap="round" stroke-linejoin="round" stroke-width="1"/>
    <circle id="Ellipse_50" data-name="Ellipse 50" cx="1.337" cy="1.337" r="1.337" transform="translate(700.744 1208.881)" fill="none" stroke="#191717" stroke-linecap="round" stroke-linejoin="round" stroke-width="1"/>
    <circle id="Ellipse_51" data-name="Ellipse 51" cx="1.337" cy="1.337" r="1.337" transform="translate(698.96 1206.693)" fill="none" stroke="#191717" stroke-linecap="round" stroke-linejoin="round" stroke-width="1"/>
    <path id="Path_274" data-name="Path 274" d="M802.651,1220.859a12.688,12.688,0,0,0-11.042-3.619c3.375,4.367,7.561,5.941,9.876,5.469" transform="translate(-38.513 -21.909)" fill="none" stroke="#191717" stroke-linecap="round" stroke-linejoin="round" stroke-width="1"/>
    <g id="Group_29" data-name="Group 29" transform="translate(578.705 1080.579)">
      <path id="Path_275" data-name="Path 275" d="M583.888,1121.675l55.923-41.1,57.528,38.818S640.678,1102.394,583.888,1121.675Z" transform="translate(-583.888 -1080.579)" fill="#c92e36" stroke="#191717" stroke-linecap="round" stroke-linejoin="round" stroke-width="2"/>
      <path id="Path_276" data-name="Path 276" d="M600.129,1119.167s4.737-5.032,10.076-2.31c5.98-5.7,11.017-3.825,13.536-1.615,4.513-4.506,10.813-4.476,14.167-1.148a12.384,12.384,0,0,1,15.846-.1c5.457-4.2,12.879-2.519,15.727,1.679,4-3.043,9.6-1.187,12.293,1.994a8.914,8.914,0,0,1,5.982,0" transform="translate(-586.494 -1085.488)" fill="none" stroke="#191717" stroke-linecap="round" stroke-linejoin="round" stroke-width="2"/>
      <path id="Path_277" data-name="Path 277" d="M611.691,1110.8s5.206-.94,7.063,1.707c1.857-3.491,8.377-6.433,14.011-1.421,4.742-5.8,12.193-4.34,15.131-.582,4.146-5.266,13.568-4.193,16.622.517,4.314-4.1,12.609-1.647,13.42,2.634,2.543-2.174,4.327-1.281,4.327-1.281" transform="translate(-588.349 -1084.818)" fill="none" stroke="#191717" stroke-linecap="round" stroke-linejoin="round" stroke-width="2"/>
      <path id="Path_278" data-name="Path 278" d="M621.441,1103.729s5.667-.473,6.192,2.466c1.417-3.515,11.754-6.454,15.69-1.049,3.778-5.3,13.59-4.408,15.678.158,3.422-3.429,11.135-4.513,14.859,1.923,1.261-1.854,4.138-1.588,4.138-1.588" transform="translate(-589.914 -1083.938)" fill="none" stroke="#191717" stroke-linecap="round" stroke-linejoin="round" stroke-width="2"/>
      <path id="Path_279" data-name="Path 279" d="M631.441,1096.414s5.825.787,6.611,3.725c1.522-3.358,10.128-7.083,15.112-.42,3.831-6.978,13.538-3.148,14.325.42" transform="translate(-591.518 -1083.025)" fill="none" stroke="#191717" stroke-linecap="round" stroke-linejoin="round" stroke-width="2"/>
      <path id="Path_280" data-name="Path 280" d="M640.087,1090.117s5.876.091,7.241,4.926c2.344-5.241,7.871-5.555,9.62-5.241" transform="translate(-592.905 -1082.045)" fill="none" stroke="#191717" stroke-linecap="round" stroke-linejoin="round" stroke-width="2"/>
      <path id="Path_281" data-name="Path 281" d="M655.277,1088.408s-2.869-4.373-6.857-4.548" transform="translate(-594.242 -1081.105)" fill="none" stroke="#191717" stroke-linecap="round" stroke-linejoin="round" stroke-width="2"/>
    </g>
    <path id="Path_282" data-name="Path 282" d="M742.08,1233.734a3.265,3.265,0,0,1,3.576-.468c.806.412,1.48,1.18,2.384,1.234.442.027.875-.128,1.317-.139a.99.99,0,0,1,1.047.63.856.856,0,0,1-.421.844,2.5,2.5,0,0,1-.95.3l-2.573.451c-.589.1-1.27.276-1.5.826a1.409,1.409,0,0,0,.484,1.49c.406.381.918.638,1.307,1.036a4.99,4.99,0,0,1,1.041,2.176l.39,1.342a1.536,1.536,0,0,1-.058,1.4.952.952,0,0,1-1.158.154,1.728,1.728,0,0,1-.746-.986,3.365,3.365,0,0,0-.255-.672.654.654,0,0,0-.586-.349c-.427.044-.559.62-.459,1.037a2.32,2.32,0,0,1,.18,1.253,1.026,1.026,0,0,1-1.522.348,2.334,2.334,0,0,1-.819-1.561,6.572,6.572,0,0,0-.408-1.756,17.2,17.2,0,0,0-1.056-1.462c-.8-1.27-.112-2.3-.151-3.611C741.1,1235.92,740.97,1234.732,742.08,1233.734Z" transform="translate(-30.377 -24.446)" fill="#7ff4ce"/>
    <path id="Path_283" data-name="Path 283" d="M744.609,1224.585c1.018-.714,1.828-1.705,2.9-2.337a10.461,10.461,0,0,1,2.944-1.015l4.5-1.062a10.337,10.337,0,0,0,2.18-.688,11.386,11.386,0,0,1,1.353-.667,5.472,5.472,0,0,1,2.525-.023l8.071,1.194a1.839,1.839,0,0,0-.831-2.174,5.37,5.37,0,0,0-2.433-.633l-9.169-.882a5.7,5.7,0,0,1-2.069-.465,8.5,8.5,0,0,1-2.187-2.138,2.943,2.943,0,0,0-2.674-1.2c-1.245.3-1.76,1.8-2.814,2.53a5.575,5.575,0,0,1-3.2.606,4.3,4.3,0,0,0-3.1.884c-1.234,1.234-.791,3.574-2.136,4.685a9.782,9.782,0,0,1-1.974.928c-.652.327-1.251,1.035-1.017,1.726.244.722,1.171.89,1.932.939a26.4,26.4,0,0,1,3.7.459A4.286,4.286,0,0,0,744.609,1224.585Z" transform="translate(-29.499 -21.158)" fill="#7ff4ce"/>
    <path id="Path_284" data-name="Path 284" d="M753.732,1213.625s-3.439,1.9-6.385,0" transform="translate(-31.411 -21.348)" fill="none" stroke="#191717" stroke-linecap="round" stroke-linejoin="round" stroke-width="1"/>
    <path id="Path_285" data-name="Path 285" d="M747.6,1220.022s-6.408-4.239-13.5,1.327c3.171,2.627,7.883,1.637,9.62-1.436" transform="translate(-29.286 -22.126)" fill="none" stroke="#191717" stroke-linecap="round" stroke-linejoin="round" stroke-width="1"/>
    <path id="Path_286" data-name="Path 286" d="M763.337,1211.4s15.6-2.658,14.972,10c-2.1-1.049-2.823-3.825-10.749-5.212" transform="translate(-33.976 -20.953)" fill="none" stroke="#191717" stroke-linecap="round" stroke-linejoin="round" stroke-width="1"/>
    <path id="Path_287" data-name="Path 287" d="M777.373,1222.983s-14.622-6.266-19.869,3.549" transform="translate(-33.041 -22.533)" fill="none" stroke="#191717" stroke-linecap="round" stroke-linejoin="round" stroke-width="1"/>
    <path id="Path_288" data-name="Path 288" d="M753.765,1214.893c-2.558-2.781-.656-6.258-.656-6.258,2.924,4.971,9.092,2.218,10.761,7.15-15.856-2.309-22.343,9.474-22.343,9.474s-3.263,6.166,1.027,10.536,5.13,6.466,5.13,6.466" transform="translate(-30.286 -20.547)" fill="none" stroke="#191717" stroke-linecap="round" stroke-linejoin="round" stroke-width="1"/>
    <path id="Path_289" data-name="Path 289" d="M760.1,1226.778a.83.83,0,0,1,.324-.621.557.557,0,0,1,.632.146,1.638,1.638,0,0,1,.323.609l.936,2.606c.182.509.548,1.128,1.076,1.011.4-.089.575-.561.677-.963l.622-2.462c.13-.512.337-1.108.848-1.247.571-.155,1.087.377,1.384.888a7.056,7.056,0,0,1,.92,2.872,2.3,2.3,0,0,0,.137.73.643.643,0,0,0,.569.412c.292-.013.495-.287.652-.534l2.338-3.662.666,4.35a.991.991,0,0,0,.2.547.7.7,0,0,0,.932-.041,2.694,2.694,0,0,0,.557-.857,1.378,1.378,0,0,1,.7-.725,1.065,1.065,0,0,1,1.138.452,3.11,3.11,0,0,1,.443,1.222l.794,3.769a.889.889,0,0,1,0,.543c-.184.407-.782.309-1.2.149a32.612,32.612,0,0,0-10.016-2.389,16.886,16.886,0,0,0-9.9,2.35c-.439.28-.967.6-1.443.385a.958.958,0,0,1-.518-.8,1.91,1.91,0,0,1,.216-.963,3.972,3.972,0,0,1,3.023-2.145,3.82,3.82,0,0,1,.988-.014c.228.028.647.221.853.076.236-.165.242-.934.292-1.2l.253-1.356Z" transform="translate(-32.459 -23.306)" fill="#fad604"/>
    <path id="Path_290" data-name="Path 290" d="M751.928,1241.184s6.341-5.72,13.8-5.72,13.6,5.2,13.6,5.2" transform="translate(-32.146 -24.852)" fill="none" stroke="#191717" stroke-linecap="round" stroke-linejoin="round" stroke-width="1"/>
    <path id="Path_291" data-name="Path 291" d="M757.5,1229.65l2.029,1.837,1.277-6.874,3.318,5.877,2.5-7.713,2.476,7.608,4.093-6.769v7.871l2.151-1.837" transform="translate(-33.04 -22.816)" fill="none" stroke="#191717" stroke-linecap="round" stroke-linejoin="round" stroke-width="1"/>
    <path id="Path_292" data-name="Path 292" d="M743.153,1228.8s2.047-.315,3.831,2.362,6.454-2.921,2.361-4.46c2.414-.63,5.667,2.781,3.253,6.769a6.559,6.559,0,0,1-6.192,3.463s4.759,3.126,2.248,10.195c0,0-10.888,1.784-10.268-10.712" transform="translate(-29.969 -23.433)" fill="none" stroke="#191717" stroke-linecap="round" stroke-linejoin="round" stroke-width="1"/>
    <path id="Path_293" data-name="Path 293" d="M723.867,1238.655a1.392,1.392,0,0,0,1.47-.621c.1-.167.165-.356.275-.517a2.191,2.191,0,0,1,1.211-.714,1.635,1.635,0,0,1,.545-.109.556.556,0,0,1,.474.249.8.8,0,0,1,.018.566c-.055.24-.119.479-.192.714-.088.285-.189.564-.29.845l-.846,2.345a1.812,1.812,0,0,1-.434.771,1.867,1.867,0,0,1-1.594.176,1.732,1.732,0,0,0-1.577.232c-.485.5-.227,1.355-.528,1.981a1.2,1.2,0,0,1-.971.664,1.619,1.619,0,0,1-1.519-1.156,4.735,4.735,0,0,1-.1-2.033,6.755,6.755,0,0,1,.6-2.6,4.311,4.311,0,0,1,1.816-1.7c.123-.065.364-.238.513-.186s.179.281.254.418A1.387,1.387,0,0,0,723.867,1238.655Z" transform="translate(-26.982 -25.049)" fill="#f26450"/>
    <path id="Path_294" data-name="Path 294" d="M738.328,1232.478s-10.222.912-11.324,13.106" transform="translate(-28.147 -24.373)" fill="none" stroke="#191717" stroke-linecap="round" stroke-linejoin="round" stroke-width="1"/>
    <circle id="Ellipse_52" data-name="Ellipse 52" cx="1.337" cy="1.337" r="1.337" transform="translate(698.07 1209.301)" fill="none" stroke="#191717" stroke-linecap="round" stroke-linejoin="round" stroke-width="1"/>
    <circle id="Ellipse_53" data-name="Ellipse 53" cx="1.337" cy="1.337" r="1.337" transform="translate(695.785 1211.114)" fill="none" stroke="#191717" stroke-linecap="round" stroke-linejoin="round" stroke-width="1"/>
    <circle id="Ellipse_54" data-name="Ellipse 54" cx="1.337" cy="1.337" r="1.337" transform="translate(696.183 1218.537)" fill="none" stroke="#191717" stroke-linecap="round" stroke-linejoin="round" stroke-width="1"/>
    <path id="Path_295" data-name="Path 295" d="M801,1235.032c-.714-1.717-1.97-3.172-2.64-4.907-.157-.406-.253-.935.077-1.221a1.163,1.163,0,0,1,.787-.182l3.341.041a7.843,7.843,0,0,1,6.362,2.342,4.982,4.982,0,0,1,1.781,2.116,1.507,1.507,0,0,1-.351,1.654c-.606.471-1.547.174-2.2.581a1.739,1.739,0,0,0-.615,1.751,12.291,12.291,0,0,0,.722,2.139,2.719,2.719,0,0,1-.006,2.195,3.331,3.331,0,0,1-.841.889l-.568.469a6.906,6.906,0,0,1-4.623,1.846,1.71,1.71,0,0,1-.633.008c-.747-.18-.28-.694-.148-1.117a10.352,10.352,0,0,0,.233-2.086,17.828,17.828,0,0,0-.049-4.214A9.847,9.847,0,0,0,801,1235.032Z" transform="translate(-39.572 -23.77)" fill="#f26450"/>
    <path id="Path_296" data-name="Path 296" d="M802.672,1245.665c7.624-1.274,4.842-8.095,4.842-8.095s6.433.022,2.623-7.154-14.009-2.658-14.009-2.658,12.784,1.731,13.135,7.766" transform="translate(-39.238 -23.39)" fill="none" stroke="#191717" stroke-linecap="round" stroke-linejoin="round" stroke-width="1"/>
    <path id="Path_297" data-name="Path 297" d="M804.954,1230.4a14.238,14.238,0,0,1,5.026.465" transform="translate(-40.654 -24.032)" fill="none" stroke="#191717" stroke-linecap="round" stroke-linejoin="round" stroke-width="1"/>
    <path id="Path_298" data-name="Path 298" d="M800.108,1244.739c3.417-7.486-2.438-15.023-2.438-15.023s7.207,2.43,7.976,6.277" transform="translate(-39.485 -23.929)" fill="none" stroke="#191717" stroke-linecap="round" stroke-linejoin="round" stroke-width="1"/>
    <path id="Path_299" data-name="Path 299" d="M789.723,1229.149a4.479,4.479,0,0,0-2.645,2.367,7.134,7.134,0,0,0-.39,2.494,3.139,3.139,0,0,0,.368,1.978,1.565,1.565,0,0,0,1,.62c.619.1,1.32-.16,1.844.183a1.584,1.584,0,0,1,.49,1.558,4.344,4.344,0,0,0-.088,1.707,1.733,1.733,0,0,0,1.515,1.182,2.355,2.355,0,0,0,1.835-.74,3.715,3.715,0,0,0,.915-1.8,3.434,3.434,0,0,1,.206-.742.813.813,0,0,1,.566-.481,4.523,4.523,0,0,1,.521.018,1.323,1.323,0,0,0,1.01-.8,4.844,4.844,0,0,0,.2-3.684,12.934,12.934,0,0,0-1.771-3.333,2.868,2.868,0,0,0-.772-.858,1.333,1.333,0,0,0-1.077-.1,6.451,6.451,0,0,1-1.139.014A7.645,7.645,0,0,0,789.723,1229.149Z" transform="translate(-37.722 -23.759)" fill="#7ff4ce"/>
    <path id="Path_300" data-name="Path 300" d="M787.066,1250.52a6.167,6.167,0,0,0,1.971-4.493" transform="translate(-37.784 -26.547)" fill="none" stroke="#191717" stroke-linecap="round" stroke-linejoin="round" stroke-width="1"/>
    <path id="Path_301" data-name="Path 301" d="M790.837,1249.521a6.524,6.524,0,0,0,1.452-6.682" transform="translate(-38.389 -26.035)" fill="none" stroke="#191717" stroke-linecap="round" stroke-linejoin="round" stroke-width="1"/>
    <path id="Path_302" data-name="Path 302" d="M795.849,1246.343s1.013-3.9-1.034-6.629" transform="translate(-39.027 -25.534)" fill="none" stroke="#191717" stroke-linecap="round" stroke-linejoin="round" stroke-width="1"/>
    <path id="Path_303" data-name="Path 303" d="M795.49,1236.415c.621,12.5-10.267,10.712-10.267,10.712-2.51-7.069,2.247-10.195,2.247-10.195a6.559,6.559,0,0,1-6.192-3.463c-2.414-3.988.84-7.4,3.253-6.769-4.093,1.54.578,7.136,2.362,4.46s3.83-2.362,3.83-2.362" transform="translate(-36.719 -23.433)" fill="none" stroke="#191717" stroke-linecap="round" stroke-linejoin="round" stroke-width="1"/>
    <path id="Path_304" data-name="Path 304" d="M783.645,1217.805a2.165,2.165,0,0,0-1.582.876,1.687,1.687,0,0,0-.109,1.766,2.713,2.713,0,0,0,.963.868,2.463,2.463,0,0,0,1.33.479,2.145,2.145,0,0,0,1.346-.674,2.4,2.4,0,0,0,.849-1.546,1.28,1.28,0,0,0-.895-1.262A3.582,3.582,0,0,0,783.645,1217.805Z" transform="translate(-36.931 -22.017)" fill="#fad604"/>
    <path id="Path_305" data-name="Path 305" d="M782.3,1212.263s5.836,4.668,3.789,9.213" transform="translate(-37.02 -21.129)" fill="none" stroke="#191717" stroke-linecap="round" stroke-linejoin="round" stroke-width="1"/>
    <circle id="Ellipse_55" data-name="Ellipse 55" cx="1.601" cy="1.601" r="1.601" transform="translate(745.986 1198.037)" fill="none" stroke="#191717" stroke-linecap="round" stroke-linejoin="round" stroke-width="1"/>
    <path id="Path_306" data-name="Path 306" d="M692.218,1152.178c3.281,3.607,8.568,7.365,12.194,9.747a4.006,4.006,0,0,0,5.729-1.452A36.547,36.547,0,0,1,734.2,1142.4c18.485-4.476,36.833-7.5,47.709-1.326a6.22,6.22,0,0,0,6.974-.661,237.514,237.514,0,0,0,18.747-17.19,2.585,2.585,0,0,0-.029-3.637h0a2.582,2.582,0,0,0-2.294-.717c-6.151,1.125-33.113,4.858-64.424-8.894a5.151,5.151,0,0,0-6.071,1.5c-12.452,15.286-30.965,21.753-38.927,23.938a7.046,7.046,0,0,0-4.949,4.983l-.8,2.986A9.447,9.447,0,0,0,692.218,1152.178Z" transform="translate(-22.179 -4.648)" fill="#191717"/>
  </g>
</svg>
