<svg xmlns="http://www.w3.org/2000/svg" width="229.322" height="196.991" viewBox="0 0 229.322 196.991">
  <g id="Group_5" data-name="Group 5" transform="translate(-1432.229 -546.646)">
    <path id="Path_1" data-name="Path 1" d="M1622.041,632.64a1.217,1.217,0,0,1,.156.6v4.073a1.494,1.494,0,0,1-.3.913,1.535,1.535,0,0,1-1.27.662h-4.768a2.636,2.636,0,0,0-2.587,2.132l-.481,2.466-10.172,4.509-4.527-11.388a7.379,7.379,0,0,1,.143-5.815l2.451-5.332a1.53,1.53,0,0,1,1.387-.886H1612.3a8.816,8.816,0,0,1,4.323,1.058,8.637,8.637,0,0,1,3.309,3.281Z" transform="translate(-17.319 -8.107)" fill="#191717" stroke="#191717" stroke-linecap="round" stroke-linejoin="round" stroke-width="1.5"/>
    <g id="Group_1" data-name="Group 1" transform="translate(1595.817 677.903)">
      <line id="Line_1" data-name="Line 1" y1="58.378" transform="translate(32.492 3.303)" fill="none" stroke="#191717" stroke-miterlimit="10" stroke-width="2"/>
      <path id="Path_2" data-name="Path 2" d="M1647.462,693.248a32.492,32.492,0,1,0,32.492,32.491A32.492,32.492,0,0,0,1647.462,693.248Zm0,61.681a29.189,29.189,0,1,1,29.189-29.189A29.189,29.189,0,0,1,1647.462,754.929Z" transform="translate(-1614.971 -693.248)" fill="#191717" stroke="#191717" stroke-linecap="round" stroke-linejoin="round" stroke-width="1.5"/>
      <line id="Line_2" data-name="Line 2" y1="41.28" x2="41.28" transform="translate(11.852 11.852)" fill="none" stroke="#191717" stroke-miterlimit="10" stroke-width="2"/>
      <line id="Line_3" data-name="Line 3" x2="58.378" transform="translate(3.302 32.492)" fill="none" stroke="#191717" stroke-miterlimit="10" stroke-width="2"/>
      <line id="Line_4" data-name="Line 4" x2="41.28" y2="41.28" transform="translate(11.852 11.852)" fill="none" stroke="#191717" stroke-miterlimit="10" stroke-width="2"/>
      <line id="Line_5" data-name="Line 5" y1="54.065" x2="22.024" transform="translate(21.48 5.459)" fill="none" stroke="#191717" stroke-miterlimit="10" stroke-width="2"/>
      <line id="Line_6" data-name="Line 6" y1="22.656" x2="53.803" transform="translate(5.59 21.164)" fill="none" stroke="#191717" stroke-miterlimit="10" stroke-width="2"/>
      <line id="Line_7" data-name="Line 7" x2="54.065" y2="22.024" transform="translate(5.459 21.48)" fill="none" stroke="#191717" stroke-miterlimit="10" stroke-width="2"/>
      <line id="Line_8" data-name="Line 8" x2="23.693" y2="53.354" transform="translate(20.645 5.815)" fill="none" stroke="#191717" stroke-miterlimit="10" stroke-width="2"/>
      <path id="Path_3" data-name="Path 3" d="M1647.851,696.94a29.189,29.189,0,1,0,29.189,29.188A29.189,29.189,0,0,0,1647.851,696.94Zm0,55.411a26.222,26.222,0,1,1,26.223-26.223A26.222,26.222,0,0,1,1647.851,752.351Z" transform="translate(-1615.36 -693.637)" fill="#a1a1aa" stroke="#191717" stroke-linecap="round" stroke-linejoin="round" stroke-width="1.5"/>
    </g>
    <path id="Path_4" data-name="Path 4" d="M1582.324,728.73l-7.962-12.059H1564.5l-36.813,20.683,5.421,2.612,17.633,1.718,6.486-2.585h5.377a4.148,4.148,0,0,0,2.906-1.188l1.469-1.442h7.354a4.636,4.636,0,0,0,3.578-1.682l1.736-2.093h.537A2.554,2.554,0,0,0,1582.324,728.73Zm-47.249,9.393-.718-.4a.73.73,0,0,1,.023-1.291l7.913-4a.757.757,0,0,1,1.088.552l.777,4.675a1.074,1.074,0,0,1-1.147,1.247l-7.275-.586A1.619,1.619,0,0,1,1535.075,738.123Zm45.351-9.793-.681,1.274a.669.669,0,0,1-.589.352h-3.471a.656.656,0,0,1-.463-1.12l1.286-1.286a.7.7,0,0,1,.465-.188h2.872A.658.658,0,0,1,1580.426,728.33Z" transform="translate(-9.955 -17.813)" fill="#191717" stroke="#191717" stroke-linecap="round" stroke-linejoin="round" stroke-width="1.5"/>
    <path id="Path_5" data-name="Path 5" d="M1632.371,694.38l-2.46,5.242-.081.251a2.358,2.358,0,0,1-1.333-.152l-4.8-2a2.433,2.433,0,0,0-2.576.456c-2.907,2.648-10.055,10.574-10.717,24.888a2.459,2.459,0,0,1-.823,1.727c-1.548,1.351-3.1,2.693-4.348,3.784a2.42,2.42,0,0,1-3.757-.751l7.193-13.026a95.533,95.533,0,0,0,7.872-18.751l5.234-17.49a6.9,6.9,0,0,0,.286-.823l4.947,11.218,2.7-1.4Z" transform="translate(-17.732 -13.709)" fill="#191717" stroke="#191717" stroke-linecap="round" stroke-linejoin="round" stroke-width="1.5"/>
    <path id="Path_6" data-name="Path 6" d="M1664.976,690.88l-18.626-2.639a6.018,6.018,0,0,0-6.826,5.4l-.188,2.013a2.436,2.436,0,0,1-1.387,1.968l-4.142,1.941a2.069,2.069,0,0,1-.635.188l.08-.251,2.46-5.242-2.657-6.826-2.7,1.4-4.947-11.218V677.6c.054-.188.1-.367.134-.555v-.009a2.409,2.409,0,0,1,1.7-.411l13.249,1.78a51.243,51.243,0,0,1,12.033,3.122l10.923,4.3a2.416,2.416,0,0,1,1.235,1.073l1.351,2.433A1.043,1.043,0,0,1,1664.976,690.88Z" transform="translate(-20.254 -13.591)" fill="#191717" stroke="#191717" stroke-linecap="round" stroke-linejoin="round" stroke-width="1.5"/>
    <circle id="Ellipse_1" data-name="Ellipse 1" cx="9.468" cy="9.468" r="9.468" transform="translate(1618.841 700.927)" fill="#a1a1aa" stroke="#191717" stroke-linecap="round" stroke-linejoin="round" stroke-width="1"/>
    <path id="Path_7" data-name="Path 7" d="M1617.588,673.775v.009a6.9,6.9,0,0,1-.42,1.387l-5.234,17.49a95.535,95.535,0,0,1-7.872,18.751l-7.193,13.026-1.61,2.916a2.43,2.43,0,0,1-2.245,1.494h-.617a2.426,2.426,0,0,1-1.906-.922l-13.2-16.649a9.1,9.1,0,0,0-7.148-3.453H1557.73l11.353-9.644,3.793-6.906,3.578.34,16.389-10.628,8.66-21.247-.447-3.355.626-6.244a5.325,5.325,0,0,1,1-2.639,5.52,5.52,0,0,1,2.219-1.762,1.413,1.413,0,0,1,1.834.716l10.351,22.9A7.3,7.3,0,0,1,1617.588,673.775Z" transform="translate(-13.121 -10.326)" fill="#fff" stroke="#191717" stroke-linecap="round" stroke-linejoin="round" stroke-width="2"/>
    <path id="Path_8" data-name="Path 8" d="M1538.039,715.151l28.5.494a8.548,8.548,0,0,1,8.4,8.547h0a8.548,8.548,0,0,1-7.936,8.527l-31.095,2.235Z" transform="translate(-10.822 -17.653)" fill="#a1a1aa" stroke="#191717" stroke-miterlimit="10" stroke-width="2"/>
    <circle id="Ellipse_2" data-name="Ellipse 2" cx="8.946" cy="8.946" r="8.946" transform="translate(1546.243 697.498)" fill="#a1a1aa" stroke="#191717" stroke-miterlimit="10" stroke-width="2"/>
    <g id="Group_2" data-name="Group 2" transform="translate(1451.5 677.903)">
      <line id="Line_9" data-name="Line 9" y1="58.378" transform="translate(32.492 3.303)" fill="none" stroke="#191717" stroke-miterlimit="10" stroke-width="2"/>
      <path id="Path_9" data-name="Path 9" d="M1486.145,693.248a32.492,32.492,0,1,0,32.491,32.491A32.492,32.492,0,0,0,1486.145,693.248Zm0,61.681a29.189,29.189,0,1,1,29.189-29.189A29.189,29.189,0,0,1,1486.145,754.929Z" transform="translate(-1453.653 -693.248)" fill="#191717" stroke="#191717" stroke-linecap="round" stroke-linejoin="round" stroke-width="1.5"/>
      <line id="Line_10" data-name="Line 10" y1="41.28" x2="41.28" transform="translate(11.852 11.852)" fill="none" stroke="#191717" stroke-miterlimit="10" stroke-width="2"/>
      <line id="Line_11" data-name="Line 11" x2="58.378" transform="translate(3.303 32.492)" fill="none" stroke="#191717" stroke-miterlimit="10" stroke-width="2"/>
      <line id="Line_12" data-name="Line 12" x2="41.28" y2="41.28" transform="translate(11.852 11.852)" fill="none" stroke="#191717" stroke-miterlimit="10" stroke-width="2"/>
      <line id="Line_13" data-name="Line 13" y1="54.065" x2="22.024" transform="translate(21.48 5.459)" fill="none" stroke="#191717" stroke-miterlimit="10" stroke-width="2"/>
      <line id="Line_14" data-name="Line 14" y1="22.656" x2="53.803" transform="translate(5.591 21.164)" fill="none" stroke="#191717" stroke-miterlimit="10" stroke-width="2"/>
      <line id="Line_15" data-name="Line 15" x2="54.065" y2="22.024" transform="translate(5.46 21.48)" fill="none" stroke="#191717" stroke-miterlimit="10" stroke-width="2"/>
      <line id="Line_16" data-name="Line 16" x2="23.693" y2="53.354" transform="translate(20.645 5.815)" fill="none" stroke="#191717" stroke-miterlimit="10" stroke-width="2"/>
      <path id="Path_10" data-name="Path 10" d="M1486.534,696.94a29.189,29.189,0,1,0,29.189,29.188A29.189,29.189,0,0,0,1486.534,696.94Zm0,55.411a26.222,26.222,0,1,1,26.222-26.223A26.222,26.222,0,0,1,1486.534,752.351Z" transform="translate(-1454.042 -693.637)" fill="#a1a1aa" stroke="#191717" stroke-linecap="round" stroke-linejoin="round" stroke-width="1.5"/>
    </g>
    <path id="Path_11" data-name="Path 11" d="M1530.615,717.157l-43.64-2.508a12.283,12.283,0,0,0-12.988,12.262h0a12.284,12.284,0,0,0,12.988,12.263l43.64-2.508a9.772,9.772,0,0,0,9.211-9.756h0A9.771,9.771,0,0,0,1530.615,717.157Z" transform="translate(-4.296 -17.598)" fill="#a1a1aa" stroke="#191717" stroke-miterlimit="10" stroke-width="2"/>
    <path id="Path_12" data-name="Path 12" d="M1561.937,694.845l-1.3,1.87a42.669,42.669,0,0,1-9.456,9.823l-3.1,2.335a6.356,6.356,0,0,1-3.811,1.27h-20.415a4.853,4.853,0,0,1-4.187-2.406l-3.668-6.343a29.972,29.972,0,0,0-18.966-14.144l.009-.045a2.47,2.47,0,0,0-1.879-2.988l-.707-.152a2.472,2.472,0,0,0-2.952,1.9l-.107.51c-.438-.027-.877-.036-1.324-.036h-12.954a29.388,29.388,0,0,1-10.458-1.923l-11.8-4.491V669.957l5.985-2.326H1549.7v2.693a15.426,15.426,0,0,1-.724,4.7,15.852,15.852,0,0,1-2.094,4.258,13.132,13.132,0,0,0-1.78,3.623,13.324,13.324,0,0,0-.617,3.99,3.236,3.236,0,0,0,2.684,3.194l13.795,2.433A1.493,1.493,0,0,1,1561.937,694.845Z" transform="translate(-2.281 -12.645)" fill="#191717" stroke="#191717" stroke-linecap="round" stroke-linejoin="round" stroke-width="1.5"/>
    <path id="Path_13" data-name="Path 13" d="M1606.471,624.619l1.3-15.053a8.979,8.979,0,0,0-2.321-6.838l-.281-.307" transform="translate(-18.121 -5.772)" fill="none" stroke="#231f20" stroke-linecap="round" stroke-linejoin="round" stroke-width="2"/>
    <path id="Path_14" data-name="Path 14" d="M1467.231,657.551l-1.509,1.612a3.284,3.284,0,0,0-.091,4.39l7.875,9.14a3.286,3.286,0,0,0,2.489,1.141H1543.1a3.289,3.289,0,0,0,1.152-.208l6.619-2.479a5.652,5.652,0,0,0,3.213-7.517l-1.436-4.1a3.287,3.287,0,0,0-3.079-1.992s-20.453,3.487-36.461.8c-8.144-1.367-37.392-4.06-37.392-4.06A10.461,10.461,0,0,0,1467.231,657.551Z" transform="translate(-3.331 -11.234)" fill="#191717" stroke="#191717" stroke-linecap="round" stroke-linejoin="round" stroke-width="1.5"/>
    <path id="Path_15" data-name="Path 15" d="M1472.13,674.433H1468.3l-9.91-10.564a2.343,2.343,0,0,1,.347-3.51h0a2.342,2.342,0,0,1,3.131.372l10.985,12.07A.974.974,0,0,1,1472.13,674.433Z" transform="translate(-2.585 -11.832)" fill="#fff" stroke="#191717" stroke-miterlimit="10" stroke-width="2"/>
    <path id="Path_16" data-name="Path 16" d="M1563.614,698.924a2.223,2.223,0,0,1,1.4,3.622,42.671,42.671,0,0,1-7.094,6.727l-3.1,2.335a6.356,6.356,0,0,1-3.811,1.27H1530.6a4.853,4.853,0,0,1-4.187-2.406l-3.668-6.343a29.732,29.732,0,0,0-3.945-5.35l.884-1.846a5.9,5.9,0,0,1,6.134-3.292Z" transform="translate(-9.018 -15.38)" fill="none" stroke="#191717" stroke-linecap="round" stroke-linejoin="round" stroke-width="1.5"/>
    <path id="Path_17" data-name="Path 17" d="M1450.156,673.188,1448.841,678a1.373,1.373,0,0,0,1.324,1.735h3.988v-7.772h-2.392A1.664,1.664,0,0,0,1450.156,673.188Z" transform="translate(-1.64 -13.101)" fill="#e82627" stroke="#191717" stroke-linecap="round" stroke-linejoin="round" stroke-width="1.5"/>
    <path id="Path_18" data-name="Path 18" d="M1511.017,724.484h30.159l2.27,10.363h2.311l.82,4.267h-6.56l-1.267-3.223-21.62-4.091-7.721-5.9Z" transform="translate(-8.029 -18.637)" fill="#a1a1aa" stroke="#191717" stroke-linecap="round" stroke-linejoin="round" stroke-width="2"/>
    <path id="Path_19" data-name="Path 19" d="M1500.062,721.041l3.057-3.536,8.8,7.039-3.318,3.994Z" transform="translate(-7.044 -17.901)" fill="#191717" stroke="#191717" stroke-linecap="round" stroke-linejoin="round" stroke-width="1.5"/>
    <path id="Path_20" data-name="Path 20" d="M1509.937,727.381l1.136-1.314,3.269,2.616-1.233,1.484Z" transform="translate(-8.084 -18.803)" fill="#a1a1aa" stroke="#191717" stroke-linecap="round" stroke-linejoin="round" stroke-width="1"/>
    <path id="Path_21" data-name="Path 21" d="M1500.823,689.134l-.009.045-5,21.328-5.153-1.118,4.518-20.988.107-.51a2.472,2.472,0,0,1,2.952-1.9l.707.152A2.47,2.47,0,0,1,1500.823,689.134Z" transform="translate(-6.053 -14.574)" fill="#fff" stroke="#191717" stroke-miterlimit="10" stroke-width="2"/>
    <path id="Path_22" data-name="Path 22" d="M1491.2,712.333l-2.56,13.321,2.386.6,3.675-13.158Z" transform="translate(-5.84 -17.356)" fill="#fff" stroke="#191717" stroke-miterlimit="10" stroke-width="2"/>
    <circle id="Ellipse_3" data-name="Ellipse 3" cx="3.047" cy="3.047" r="3.047" transform="translate(1480.945 707.348)" fill="#fff" stroke="#191717" stroke-miterlimit="10" stroke-width="2"/>
    <circle id="Ellipse_4" data-name="Ellipse 4" cx="3.047" cy="3.047" r="3.047" transform="translate(1528.867 704.217)" fill="#a1a1aa" stroke="#191717" stroke-miterlimit="10" stroke-width="2"/>
    <path id="Path_23" data-name="Path 23" d="M1556.02,715.151l-3.355,8.946,3.667,9.516" transform="translate(-12.587 -17.653)" fill="none" stroke="#191717" stroke-linecap="round" stroke-linejoin="round" stroke-width="1"/>
    <line id="Line_17" data-name="Line 17" x1="0.976" y2="6.682" transform="translate(1545.266 716.591)" fill="none" stroke="#191717" stroke-linecap="round" stroke-linejoin="round" stroke-width="4"/>
    <circle id="Ellipse_5" data-name="Ellipse 5" cx="3.047" cy="3.047" r="3.047" transform="translate(1540.441 719.537)" fill="#a1a1aa" stroke="#191717" stroke-miterlimit="10" stroke-width="2"/>
    <circle id="Ellipse_6" data-name="Ellipse 6" cx="1.51" cy="1.51" r="1.51" transform="translate(1550.869 694.311)" fill="#a1a1aa" stroke="#191717" stroke-linecap="round" stroke-linejoin="round" stroke-width="1"/>
    <circle id="Ellipse_7" data-name="Ellipse 7" cx="1.164" cy="1.164" r="1.164" transform="translate(1555.005 680.388)" fill="#a1a1aa" stroke="#191717" stroke-linecap="round" stroke-linejoin="round" stroke-width="1"/>
    <circle id="Ellipse_8" data-name="Ellipse 8" cx="1.51" cy="1.51" r="1.51" transform="translate(1465.136 663.615)" fill="#a1a1aa" stroke="#191717" stroke-linecap="round" stroke-linejoin="round" stroke-width="1"/>
    <circle id="Ellipse_9" data-name="Ellipse 9" cx="1.51" cy="1.51" r="1.51" transform="translate(1571.767 709.128)" fill="#a1a1aa" stroke="#191717" stroke-linecap="round" stroke-linejoin="round" stroke-width="1"/>
    <line id="Line_18" data-name="Line 18" y1="11.091" x2="6.57" transform="translate(1553.357 683.035)" fill="none" stroke="#191717" stroke-linecap="round" stroke-linejoin="round" stroke-width="2"/>
    <path id="Path_24" data-name="Path 24" d="M1601.749,700.943l-3.193-1.253a3.592,3.592,0,0,0-4.6,1.9l-1.066,2.432a3.593,3.593,0,0,0,2.6,4.967l3.606.71a3.593,3.593,0,0,0,4.091-2.354l.651-1.89A3.593,3.593,0,0,0,1601.749,700.943Z" transform="translate(-16.795 -15.997)" fill="#191717" stroke="#191717" stroke-linecap="round" stroke-linejoin="round" stroke-width="1.5"/>
    <path id="Path_25" data-name="Path 25" d="M1573.591,695.689h2.761a4.633,4.633,0,0,0,2.741-.9l15.818-11.611a6.086,6.086,0,0,0,2.042-2.632l8.351-20.758-3.4-10.139-2.181,1.029a1.562,1.562,0,0,0-.8,1.955l2.4,6.483a4.323,4.323,0,0,1-.044,3.116l-6.62,16.442a8.441,8.441,0,0,1-3.415,4.043l-13.524,8.307h-2.534Z" transform="translate(-14.793 -10.75)" fill="#191717" stroke="#191717" stroke-linecap="round" stroke-linejoin="round" stroke-width="1.5"/>
    <path id="Path_26" data-name="Path 26" d="M1607.611,660.984s8.648,19.5,1.193,39.569-13.322,29.739-13.322,29.739" transform="translate(-17.1 -11.944)" fill="none" stroke="#191717" stroke-linecap="round" stroke-linejoin="round" stroke-width="2"/>
    <path id="Path_27" data-name="Path 27" d="M1630.723,689.465l2-.766a1.091,1.091,0,0,1,1.405.616l1.9,4.785a1.091,1.091,0,0,1-.641,1.429l-1.8.656a1.092,1.092,0,0,1-1.369-.581l-2.092-4.674A1.092,1.092,0,0,1,1630.723,689.465Z" transform="translate(-20.74 -14.857)" fill="#e82627" stroke="#191717" stroke-linecap="round" stroke-linejoin="round" stroke-width="1"/>
    <path id="Path_28" data-name="Path 28" d="M1613.585,645.956l.549-.259a1.164,1.164,0,0,1,1.553.556l12.155,27.42-3.045,1.342-11.775-27.523A1.166,1.166,0,0,1,1613.585,645.956Z" transform="translate(-18.938 -10.321)" fill="#191717" stroke="#191717" stroke-linecap="round" stroke-linejoin="round" stroke-width="1.5"/>
    <path id="Path_29" data-name="Path 29" d="M1575.229,696.41h1.609a1.023,1.023,0,0,0,1.007-1.2l-2.1-11.881a1.023,1.023,0,0,0-1.007-.844h-1.172a1.022,1.022,0,0,0-1.013,1.164l1.661,11.881A1.022,1.022,0,0,0,1575.229,696.41Z" transform="translate(-14.683 -14.21)" fill="#191717"/>
    <path id="Path_30" data-name="Path 30" d="M1453.44,671.213h1.118a2.712,2.712,0,0,1,2.712,2.712v3.019a2.712,2.712,0,0,1-2.712,2.712h-1.118a.811.811,0,0,1-.811-.81v-6.821A.811.811,0,0,1,1453.44,671.213Z" transform="translate(-2.045 -13.022)" fill="#fff" stroke="#191717" stroke-linecap="round" stroke-linejoin="round" stroke-width="2"/>
    <path id="Path_31" data-name="Path 31" d="M1651.05,674.818l-17.37,10.437-3.057-8.5" transform="translate(-20.804 -13.402)" fill="none" stroke="#191717" stroke-linecap="round" stroke-linejoin="round" stroke-width="2"/>
    <line id="Line_19" data-name="Line 19" x2="1.975" y2="4.64" transform="translate(1620.129 661.668)" fill="none" stroke="#191717" stroke-linecap="round" stroke-linejoin="round" stroke-width="2"/>
    <path id="Path_32" data-name="Path 32" d="M1625.719,678.005l6.747-2.346,2.459-.39,20.752-.952" transform="translate(-20.287 -13.349)" fill="none" stroke="#191717" stroke-linecap="round" stroke-linejoin="round" stroke-width="2"/>
    <path id="Path_33" data-name="Path 33" d="M1463.942,685.623l-13.2,22.852a6.027,6.027,0,0,1-2.814,2.512l-7.735,3.371a.981.981,0,0,1-1.283-.489h0a.981.981,0,0,1,.334-1.217l3.909-2.7a10.93,10.93,0,0,0,3.815-4.639l9.715-22.344Z" transform="translate(-0.59 -14.262)" fill="#191717" stroke="#191717" stroke-linecap="round" stroke-linejoin="round" stroke-width="1.5"/>
    <path id="Path_34" data-name="Path 34" d="M1522.144,698.691s1.193-3.148,6.486-2.288,34.264,4.737,34.264,4.737" transform="translate(-9.371 -15.661)" fill="none" stroke="#fff" stroke-linecap="round" stroke-linejoin="round" stroke-width="1"/>
    <line id="Line_20" data-name="Line 20" x2="23.633" transform="translate(1557.262 668.572)" fill="#191717" stroke="#191717" stroke-linecap="round" stroke-linejoin="round" stroke-width="1"/>
    <line id="Line_21" data-name="Line 21" y1="20.278" transform="translate(1557.862 648.294)" fill="#191717" stroke="#191717" stroke-linecap="round" stroke-linejoin="round" stroke-width="1"/>
    <line id="Line_22" data-name="Line 22" y1="20.278" transform="translate(1560.654 648.294)" fill="#191717" stroke="#191717" stroke-linecap="round" stroke-linejoin="round" stroke-width="1"/>
    <line id="Line_23" data-name="Line 23" y1="20.278" transform="translate(1563.375 648.294)" fill="#191717" stroke="#191717" stroke-linecap="round" stroke-linejoin="round" stroke-width="1"/>
    <line id="Line_24" data-name="Line 24" y1="20.278" transform="translate(1579.18 648.294)" fill="#191717" stroke="#191717" stroke-linecap="round" stroke-linejoin="round" stroke-width="1"/>
    <line id="Line_25" data-name="Line 25" x2="23.633" transform="translate(1557.262 665.646)" fill="#191717" stroke="#191717" stroke-linecap="round" stroke-linejoin="round" stroke-width="1"/>
    <line id="Line_26" data-name="Line 26" x2="24.581" transform="translate(1557.262 663.018)" fill="#191717" stroke="#191717" stroke-linecap="round" stroke-linejoin="round" stroke-width="1"/>
    <line id="Line_27" data-name="Line 27" x2="25.757" transform="translate(1557.262 660.39)" fill="#191717" stroke="#191717" stroke-linecap="round" stroke-linejoin="round" stroke-width="1"/>
    <line id="Line_28" data-name="Line 28" x2="26.773" transform="translate(1557.262 657.762)" fill="#191717" stroke="#191717" stroke-linecap="round" stroke-linejoin="round" stroke-width="1"/>
    <line id="Line_29" data-name="Line 29" x2="28.031" transform="translate(1557.262 654.986)" fill="#191717" stroke="#191717" stroke-linecap="round" stroke-linejoin="round" stroke-width="1"/>
    <line id="Line_30" data-name="Line 30" x2="29.296" transform="translate(1557.262 652.469)" fill="#191717" stroke="#191717" stroke-linecap="round" stroke-linejoin="round" stroke-width="1"/>
    <line id="Line_31" data-name="Line 31" x2="29.526" transform="translate(1557.262 650.084)" fill="#191717" stroke="#191717" stroke-linecap="round" stroke-linejoin="round" stroke-width="1"/>
    <line id="Line_32" data-name="Line 32" x2="29.526" transform="translate(1557.262 648.294)" fill="#191717" stroke="#191717" stroke-linecap="round" stroke-linejoin="round" stroke-width="1"/>
    <path id="Path_35" data-name="Path 35" d="M1473.374,677.195h69.653l6.47-2.012" transform="translate(-4.231 -13.441)" fill="none" stroke="#fff" stroke-linecap="round" stroke-linejoin="round" stroke-width="1"/>
    <path id="Path_36" data-name="Path 36" d="M1542.913,681.01l-2.406,2.272a1.181,1.181,0,0,1-.814.322h-32.4l.76-1.02a.07.07,0,0,1,.036-.036,1.18,1.18,0,0,1,.912-.438h8.078a1.2,1.2,0,0,0,.859-.367l1.387-1.467h.009l.895-.948a1.2,1.2,0,0,1,.859-.367h21.023A1.184,1.184,0,0,1,1542.913,681.01Z" transform="translate(-7.805 -13.839)" fill="#e82627"/>
    <path id="Path_37" data-name="Path 37" d="M1551.792,704.4l-.51.805h-.009l-27.08-3.167-.483-.93Z" transform="translate(-9.536 -16.173)" fill="#fff"/>
    <path id="Path_38" data-name="Path 38" d="M1551.047,705.849l-.331.51a.728.728,0,0,1-.716.349l-7.551-.805a.764.764,0,0,0-.483.116l-.412.251a.639.639,0,0,0-.259.277l-15.879-1.825-1.047-1.861Z" transform="translate(-9.605 -16.358)" fill="#fff"/>
    <path id="Path_39" data-name="Path 39" d="M1562.844,706.333l-3.364,2.917a.765.765,0,0,1-.582.188l-15.038-1.592a.764.764,0,0,1-.581-1.136.639.639,0,0,1,.259-.277l.412-.251a.764.764,0,0,1,.483-.116l7.551.805a.727.727,0,0,0,.716-.349l.331-.51.3-.456h.009l.51-.805a.777.777,0,0,1,.7-.349l7.855.59A.767.767,0,0,1,1562.844,706.333Z" transform="translate(-11.588 -16.52)" fill="#e82627"/>
    <path id="Path_40" data-name="Path 40" d="M1555.039,704.791l-.51.805h-.009Z" transform="translate(-12.783 -16.561)" fill="#e82627"/>
    <path id="Path_41" data-name="Path 41" d="M1515.82,680.431l-1.381,1.462a1.191,1.191,0,0,1-.864.372H1505.5a1.18,1.18,0,0,0-.912.438h-29.272l-1.126-1.37a.552.552,0,0,1,.427-.9Z" transform="translate(-4.303 -13.994)" fill="#fff"/>
    <path id="Path_42" data-name="Path 42" d="M1542.985,693.445l3.5.6,4.8-.885a1.019,1.019,0,0,0,.767-1.379,4.685,4.685,0,0,1-.262-.9,1.089,1.089,0,0,0-1.573-.8c-1.9,1.016-4.291,2.535-7.228,2.99A.188.188,0,0,0,1542.985,693.445Z" transform="translate(-11.551 -14.998)" fill="#fff"/>
    <path id="Path_43" data-name="Path 43" d="M1556.752,677.432s-4.361,4.669-4.026,10.148" transform="translate(-12.592 -13.678)" fill="none" stroke="#fff" stroke-linecap="round" stroke-linejoin="round" stroke-width="1"/>
    <path id="Path_44" data-name="Path 44" d="M1472.974,656.421s1.057,2.818,15.208,3.133,23.435,1.546,32.491,12.617" transform="translate(-4.189 -11.463)" fill="none" stroke="#fff" stroke-linecap="round" stroke-linejoin="round" stroke-width="0.75"/>
    <path id="Path_45" data-name="Path 45" d="M1506.684,658.067s-2.46,10.661-2.311,14.277" transform="translate(-7.497 -11.637)" fill="none" stroke="#191717" stroke-linecap="round" stroke-linejoin="round" stroke-width="1"/>
    <path id="Path_46" data-name="Path 46" d="M1616.543,630.255l1.09,1.756a.822.822,0,0,1,.124.433v1.937a.82.82,0,0,0,.533.768l2.554.954a.82.82,0,0,0,1.107-.768v-1.529a.817.817,0,0,0-.144-.463l-2.478-3.619a.822.822,0,0,0-.471-.33l-1.414-.364A.819.819,0,0,0,1616.543,630.255Z" transform="translate(-19.306 -8.574)" fill="#e82627"/>
    <path id="Path_47" data-name="Path 47" d="M1627.1,634.252v2.493a1.866,1.866,0,0,1-2.025,1.859l-.685-.059a1.493,1.493,0,0,0,.3-.913V633.24l-2.263-4.008a8.668,8.668,0,0,0-1.172-1.6l1.108.163a4.136,4.136,0,0,1,3.044,2.135l1.129,2.1A4.693,4.693,0,0,1,1627.1,634.252Z" transform="translate(-19.817 -8.429)" fill="#fff" stroke="#191717" stroke-linecap="round" stroke-linejoin="round" stroke-width="1"/>
    <path id="Path_48" data-name="Path 48" d="M1609.093,606.762l.443-.505a2.257,2.257,0,0,0,.344-2.445l-4.5-9.569a.786.786,0,0,0-1.448.061l-4.24,11.424a1.339,1.339,0,0,0,1.255,1.8h6.446A2.254,2.254,0,0,0,1609.093,606.762Z" transform="translate(-17.535 -4.863)" fill="#191717" stroke="#191717" stroke-linecap="round" stroke-linejoin="round" stroke-width="1.5"/>
    <path id="Path_49" data-name="Path 49" d="M1606.062,628.044l0-.013-.089-.032a3.357,3.357,0,0,0-.805-.286l-3.917-1.395-2.577,6.289,4.306,1.493a3.377,3.377,0,0,0,.866.3l.026.009,0-.006a3.449,3.449,0,0,0,.612.062,3.4,3.4,0,0,0,1.574-6.421Z" transform="translate(-17.437 -8.291)" fill="#fff" stroke="#191717" stroke-linecap="round" stroke-linejoin="round" stroke-width="1"/>
    <circle id="Ellipse_10" data-name="Ellipse 10" cx="3.411" cy="3.411" r="3.411" transform="translate(1582.315 618.847)" fill="#fff" stroke="#191717" stroke-linecap="round" stroke-linejoin="round" stroke-width="1"/>
    <circle id="Ellipse_11" data-name="Ellipse 11" cx="3.411" cy="3.411" r="3.411" transform="translate(1580.811 618.29)" fill="#fff" stroke="#191717" stroke-linecap="round" stroke-linejoin="round" stroke-width="1"/>
    <circle id="Ellipse_12" data-name="Ellipse 12" cx="3.411" cy="3.411" r="3.411" transform="translate(1579.385 617.87)" fill="#fff" stroke="#191717" stroke-linecap="round" stroke-linejoin="round" stroke-width="1"/>
    <g id="Group_4" data-name="Group 4" transform="translate(1489.558 547.651)">
      <g id="Group_226" data-name="Group 226" transform="translate(5.274 7.253)">
        <g id="Group_3" data-name="Group 3" transform="translate(24.845 140.545)">
          <path id="Path_854" data-name="Path 854" d="M1558.822,719.2c1.717,6.039,2.948,6.8,7.856,10.539,2.707,2.061,2.95,6.993-4.313,7.018s-21.244-1.452-29.586-4.807c-6.781-2.727-.022-11.019,2.947-17.561,1.765-3.89,8.48.718,12.42,1.841S1557.647,715.065,1558.822,719.2Z" transform="translate(-1529.861 -712.86)" fill="#e82627" stroke="#191717" stroke-linecap="round" stroke-linejoin="round" stroke-width="2"/>
        </g>
        <path id="Path_50" data-name="Path 50" d="M1505.41,651a22.742,22.742,0,0,0,1.772,22.369c5.807,8.557,18.563,9.817,24.164,11.53.146.044.288.1.427.153a4.483,4.483,0,0,1,2.53,5.053l-3.681,13.12a2.832,2.832,0,0,0,1.968,3.494l29.505,8.217c2.723-5.766,8.762-22.236,12.758-30.405a10.5,10.5,0,0,0-1.583-11.617c-6.827-7.663-18.343-18.7-18.343-18.7S1525.52,648.907,1505.41,651Z" transform="translate(-1502.212 -565.744)" fill="#003586" stroke="#191717" stroke-linecap="round" stroke-linejoin="round" stroke-width="2"/>
        <path id="Path_860" data-name="Path 860" d="M1505,656.333c17.656,5,37.224,2.944,51.649-1.431a3.283,3.283,0,0,0,2.347-3.037c.353-13.45-6.935-27.793-9.862-36.789-1.061-3.264-35.822-2.5-38.114.064-2.249,2.516-11.167,25.1-8.408,38.642A3.376,3.376,0,0,0,1505,656.333Z" transform="translate(-1502.089 -561.781)" fill="#fff" stroke="#191717" stroke-miterlimit="10" stroke-width="2"/>
        <path id="Path_866" data-name="Path 866" d="M1563.9,727.932s-.733-3.72-6.323-3.521c6.544-2.3,9.5-7.825,7.564-9.1s-6.353,4.69-7.562,8.943c-.024-2.62-4.582-12.243-7.6-10.109s7.463,10.2,7.463,10.2-5-4.309-8.508-1.764-6.677-2.2-6.4-3.458" transform="translate(-1506.349 -572.418)" fill="none" stroke="#191717" stroke-linecap="round" stroke-linejoin="round" stroke-width="2"/>
        <path id="Path_51" data-name="Path 51" d="M1580.882,627.947l6.194-2.738a15.157,15.157,0,0,1,12.245-.422h0a5.237,5.237,0,0,1,3.187,4.181l.2,1.6a5.238,5.238,0,0,1-1.945,4.764l-5.465,4.328a5.239,5.239,0,0,1-5.347.7l-.149-.065a5.241,5.241,0,0,0-4.487.141h0a5.209,5.209,0,0,1-7.481-3.409,12.639,12.639,0,0,1,.028-5.322A5.265,5.265,0,0,1,1580.882,627.947Z" transform="translate(-1510.044 -562.917)" fill="#be7770" stroke="#191717" stroke-linecap="round" stroke-linejoin="round" stroke-width="2"/>
        <path id="Path_52" data-name="Path 52" d="M1602.352,630.386s3.844,5.011,1.023,7.525-6.133-.873-6.133-.873" transform="translate(-1512.117 -563.623)" fill="#be7770" stroke="#191717" stroke-linecap="round" stroke-linejoin="round" stroke-width="2"/>
        <path id="Path_53" data-name="Path 53" d="M1599.05,634.326s3.518,4.571.7,7.085-7.071-1.8-7.071-1.8" transform="translate(-1511.636 -564.038)" fill="#be7770" stroke="#191717" stroke-linecap="round" stroke-linejoin="round" stroke-width="2"/>
        <path id="Path_54" data-name="Path 54" d="M1594.762,637.519s2.74,2.77-.151,5.046c-1.771,1.392-4.828.231-5.9-1.69" transform="translate(-1511.218 -564.375)" fill="#be7770" stroke="#191717" stroke-linecap="round" stroke-linejoin="round" stroke-width="2"/>
        <path id="Path_55" data-name="Path 55" d="M1562.4,591.027a19.381,19.381,0,0,1-1.509-7.313c.017-11.562-3.911-27.989-29.161-27.957-16.047.021-29.058,13.8-29.058,30.829a31.513,31.513,0,0,0,10.724,23.921,3.919,3.919,0,0,0,1.7.641c8.162,2.1,24.782,2.265,33.267,0a4.012,4.012,0,0,0,1.7-.641,31.511,31.511,0,0,0,9.646-15.51c.531-.048,1.126-.122,1.8-.235C1563.47,594.433,1563.2,592.993,1562.4,591.027Z" transform="translate(-1502.151 -555.758)" fill="#be7770" stroke="#191717" stroke-linecap="round" stroke-linejoin="round" stroke-width="2"/>
        <ellipse id="Ellipse_99" data-name="Ellipse 99" cx="4.402" cy="5.184" rx="4.402" ry="5.184" transform="translate(47.244 25.273)" fill="#fff"/>
        <ellipse id="Ellipse_100" data-name="Ellipse 100" cx="2.921" cy="3.482" rx="2.921" ry="3.482" transform="matrix(0.994, -0.111, 0.111, 0.994, 50.283, 27.321)" fill="#191717"/>
        <path id="Path_863" data-name="Path 863" d="M1562.4,568.534c-3.619-.406-7.355,1.187-8.4,3.651" transform="translate(-1507.56 -557.098)" fill="none" stroke="#191717" stroke-linecap="round" stroke-linejoin="round" stroke-width="2"/>
        <path id="Path_864" data-name="Path 864" d="M1563.434,604.893a23.965,23.965,0,0,1-8.194-.878" transform="translate(-1507.691 -560.844)" fill="none" stroke="#191717" stroke-linecap="round" stroke-linejoin="round" stroke-width="2"/>
        <path id="Path_56" data-name="Path 56" d="M1532.422,648.592c12.376,7.548,41.241,1.077,50.266-4.075,3.631-8-1.371-19.548-1.371-19.548s-16.311,4.986-20.287,4.538-10.912-.458-16.558-5.043" transform="translate(-1505.286 -562.999)" fill="#fff" stroke="#191717" stroke-linecap="round" stroke-linejoin="round" stroke-width="2"/>
      </g>
      <path id="Path_57" data-name="Path 57" d="M1569.381,602.219a10.4,10.4,0,0,1-11.983,11.158l-6.375-1.008-44.384-7.017a6.889,6.889,0,0,1-4.669-3.043,35.306,35.306,0,1,1,62.542-31.869,3.59,3.59,0,0,1-3.082,4.877l-13.944.981a8.445,8.445,0,0,0-7.8,9.4l.285,2.454a8.056,8.056,0,0,0,6.663,7.017l22.463,3.787Z" transform="translate(-1496.194 -547.651)" fill="#7ff4ce" stroke="#191717" stroke-linecap="round" stroke-linejoin="round" stroke-width="2"/>
      <path id="Path_58" data-name="Path 58" d="M1539.947,576.969l27.634-2.8s4.244,11.166,5.173,32.638c-5.6-.945-20.137-3.635-30.606-5.587a13.818,13.818,0,0,1-11.275-14.078l.018-.5A10.079,10.079,0,0,1,1539.947,576.969Z" transform="translate(-1499.848 -550.445)" fill="none" stroke="#191717" stroke-miterlimit="10" stroke-width="2"/>
      <circle id="Ellipse_13" data-name="Ellipse 13" cx="3.047" cy="3.047" r="3.047" transform="translate(35.057 33.947)" fill="#a1a1aa" stroke="#191717" stroke-miterlimit="10" stroke-width="2"/>
      <path id="Path_59" data-name="Path 59" d="M1526.845,567.507c-1.58,2.134-2.638,3.833-4.122,6.019-.284.405-.57.828-.855,1.242a.133.133,0,0,1-.179.031.13.13,0,0,1-.05-.128c.05-.228.092-.458.132-.679.458-2.82.036-5.972-2.458-7.722a6.694,6.694,0,0,0-1.382-.735.138.138,0,0,1-.079-.169c.012-.016.026-.041.046-.047,2.279-1.941,3.61-5.3,4.069-7.969.319-1.859.5-4.163-.624-5.81a2.771,2.771,0,0,0-3.666-.721,10.518,10.518,0,0,0-4.324,5.174c-1.392,3.389-1.471,6.106-2.068,9.729-1.006,6.094-2.5,9.34-6.766,14.537-2.292,2.8-7.207,4.294-7.388,4.334-1.118.225-1.385,2.094.027,1.812a17.326,17.326,0,0,0,5.321-2.255c3.866-2.337,6.773-6.728,8.7-10.806a29.372,29.372,0,0,0,2.542-9.013,27.911,27.911,0,0,1,2.39-9.333,8.736,8.736,0,0,1,1.439-2.084,2.667,2.667,0,0,1,.653-.484.931.931,0,0,1,.518-.134,1.04,1.04,0,0,1,.389.116,1.128,1.128,0,0,1,.452.429,3.927,3.927,0,0,1,.595,1.9,12.226,12.226,0,0,1-2.4,8.3,5.922,5.922,0,0,1-2.279,1.74,1.313,1.313,0,0,1-.293.1c-.115.033-.238.056-.354.09l-.087.03h-.055c-1.037.077-1.855,1.964-.488,1.883a6.066,6.066,0,0,1,2.653.464,5.083,5.083,0,0,1,3.074,4.785,9.584,9.584,0,0,1-2.45,6.848c-1.023,1.11-2.679,2.288-4.27,2.1-1.932-.224-1.568-2.722-1.129-4.185.374-1.2-1.5-1.048-1.847-.181-.032.076-.066.161-.1.237a6.833,6.833,0,0,0-.422,1.421,6.5,6.5,0,0,0,.042,2.582c.738,2.618,4.1,2.59,6.2,1.82,2.5-.914,4.393-3.172,5.97-5.223.97-1.266,1.875-2.58,2.763-3.9,1.524-2,3.425-5.919,6.618-6.3a1.041,1.041,0,0,0,.905-.912l0-.028a1.059,1.059,0,0,0-1.133-1.18A5.609,5.609,0,0,0,1526.845,567.507Z" transform="translate(-1496.194 -547.942)" fill="#191717"/>
    </g>
    <circle id="Ellipse_14" data-name="Ellipse 14" cx="1.51" cy="1.51" r="1.51" transform="translate(1576.362 686.72)" fill="#a1a1aa" stroke="#191717" stroke-linecap="round" stroke-linejoin="round" stroke-width="1"/>
    <circle id="Ellipse_15" data-name="Ellipse 15" cx="2.418" cy="2.418" r="2.418" transform="translate(1580.382 688.61)" fill="#fff" stroke="#191717" stroke-linecap="round" stroke-linejoin="round" stroke-width="2"/>
    <circle id="Ellipse_16" data-name="Ellipse 16" cx="1.957" cy="1.957" r="1.957" transform="translate(1578.844 683.809)" fill="#a1a1aa" stroke="#191717" stroke-linecap="round" stroke-linejoin="round" stroke-width="1"/>
    <path id="Path_60" data-name="Path 60" d="M1457.273,685.234s-7.936,18.367-9.379,21.447-4.656,5.38-7.039,6.5" transform="translate(-0.804 -14.5)" fill="none" stroke="#fff" stroke-linecap="round" stroke-linejoin="round" stroke-width="0.75"/>
    <circle id="Ellipse_17" data-name="Ellipse 17" cx="7.376" cy="7.376" r="7.376" transform="translate(1620.932 703.019)" fill="none" stroke="#191717" stroke-linecap="round" stroke-linejoin="round" stroke-width="1" stroke-dasharray="3 0 2 0 0"/>
    <path id="Path_61" data-name="Path 61" d="M1648.815,734.6a1.143,1.143,0,0,0,1.5.578l2.751-1.2a1.143,1.143,0,0,0,.592-1.5l-15.016-32.111a.688.688,0,0,0-.9-.34l-4.481,1.941C1633.212,701.984,1648.815,734.6,1648.815,734.6Z" transform="translate(-21.081 -16.053)" fill="#fff" stroke="#191717" stroke-miterlimit="10" stroke-width="1"/>
    <line id="Line_33" data-name="Line 33" y1="5.699" x2="9.485" transform="translate(1613.531 665.76)" fill="none" stroke="#fff" stroke-linecap="round" stroke-linejoin="round" stroke-width="1"/>
    <path id="Path_62" data-name="Path 62" d="M1477.555,731.669s-2.847-7.126,1.515-11.294a10.615,10.615,0,0,1,8.3-3.121" transform="translate(-4.575 -17.87)" fill="none" stroke="#fff" stroke-linecap="round" stroke-linejoin="round" stroke-width="1"/>
    <path id="Path_63" data-name="Path 63" d="M1454.345,648.685l14.132,1.118.3.351a1.937,1.937,0,0,0,2.686.267l.129-.1,11.784.939.106.187a1.535,1.535,0,0,0,2.316.429l.542-.449,8.131.727-2.912,10.868-40.948-1.474Z" transform="translate(-1.831 -10.648)" fill="#fad604" stroke="#191717" stroke-linecap="round" stroke-linejoin="round" stroke-width="2"/>
    <path id="Path_64" data-name="Path 64" d="M1450.606,663.06l40.948,1.475v16.338l-40.948-2.076Z" transform="translate(-1.831 -12.163)" fill="#fad604" stroke="#191717" stroke-linecap="round" stroke-linejoin="round" stroke-width="2"/>
    <path id="Path_65" data-name="Path 65" d="M1434.014,685.378l14.761-4.727,40.948,2.076,11.61,5.783.043,39.12a4.854,4.854,0,0,1-4.9,4.859l-57.594-.593a5.707,5.707,0,0,1-5.648-5.817Z" transform="translate(0 -14.017)" fill="#fad604" stroke="#191717" stroke-linecap="round" stroke-linejoin="round" stroke-width="2"/>
    <path id="Path_66" data-name="Path 66" d="M1434.106,685.9a415.636,415.636,0,0,1,67.319,3.131" transform="translate(-0.092 -14.543)" fill="none" stroke="#191717" stroke-linecap="round" stroke-linejoin="round" stroke-width="2"/>
    <path id="Path_67" data-name="Path 67" d="M1433.518,716.478l33.762,9.318,34.083-7.825" transform="translate(-0.03 -17.793)" fill="none" stroke="#191717" stroke-linecap="round" stroke-linejoin="round" stroke-width="2"/>
    <rect id="Rectangle_1" data-name="Rectangle 1" width="18.442" height="6.004" rx="2.744" transform="translate(1459.118 695.168) rotate(3.231)" fill="#191717" stroke="#191717" stroke-linecap="round" stroke-linejoin="round" stroke-width="1.5"/>
  </g>
</svg>
