<svg xmlns="http://www.w3.org/2000/svg" width="430.815" height="609.775" viewBox="0 0 430.815 609.775">
  <g id="Group_23" data-name="Group 23" transform="translate(-265.983 -256.549)">
    <g id="Group_21" data-name="Group 21" transform="translate(356.873 735.259)">
      <path id="Path_179" data-name="Path 179" d="M528.429,506.389a10.723,10.723,0,0,1-10.724-10.724V411.914H313.952v83.751a10.724,10.724,0,0,1-21.448,0V401.19a10.723,10.723,0,0,1,10.724-10.724h225.2a10.723,10.723,0,0,1,10.724,10.724v94.475A10.723,10.723,0,0,1,528.429,506.389Z" transform="translate(-292.504 -390.466)" fill="#fff" stroke="#191717" stroke-miterlimit="10" stroke-width="3"/>
    </g>
    <rect id="Rectangle_17" data-name="Rectangle 17" width="275.17" height="97.069" transform="translate(343.806 673.26)" fill="#f4f06e" stroke="#191717" stroke-linecap="round" stroke-linejoin="round" stroke-width="3"/>
    <path id="Path_857" data-name="Path 857" d="M423.167,415.029c6.76,15.067,1.777,23.836,10.434,35.046,5.566,7.21,9.1,25.452-14.771,25.452H349.847c-19.411,0-11.235-8.24-4.79-55.944,3.81-28.361,20.844,0,42.17-5.991S418.763,404.6,423.167,415.029Z" transform="translate(180.774 386.701)" fill="#e82627" stroke="#191717" stroke-linecap="round" stroke-linejoin="round" stroke-width="3"/>
    <path id="Path_856" data-name="Path 856" d="M503.6,360.812c-1.745-15.682-193.776-15.682-195.6,0a5.82,5.82,0,0,1-.643,1.787c-4.368,9.2-20.125,66.707,6.749,110.611,1.43,2.313,6.173,4.272,11.875,4.894,35.518,3.9,122.558,3.9,158.079,0,5.7-.626,10.456-2.581,11.875-4.894,26.871-43.9,12.619-101.417,8.3-110.611A5.9,5.9,0,0,1,503.6,360.812Z" transform="translate(80.549 238.162)" fill="#003586" stroke="#191717" stroke-miterlimit="10" stroke-width="3"/>
    <path id="Path_859" data-name="Path 859" d="M415.972,369.277c38.917,54.2,24.869,125.007,20.2,142.5a7.015,7.015,0,0,1-6.413,4.622c-16.133,1.483-51.808,1.022-77.91.869-11.621-.072-7.911-7.035-7.507-9.52,5.151-31.26-10.585-62.607-8.479-90.4" transform="translate(175.504 290.238)" fill="#003586" stroke="#191717" stroke-linecap="round" stroke-linejoin="round" stroke-width="3"/>
    <path id="Path_860" data-name="Path 860" d="M309.312,492.512c69.885,19.042,144.067,16.572,201.215.733A15.068,15.068,0,0,0,521.8,479.265c1.212-52.126-20.776-128.31-35.847-144.914-9-9.927-143.137-9.587-152.3.247-8.987,9.648-44.623,96.252-33.6,148.2A12.889,12.889,0,0,0,309.312,492.512Z" transform="translate(78.415 181.548)" fill="#fff" stroke="#191717" stroke-miterlimit="10" stroke-width="3"/>
    <path id="Path_855" data-name="Path 855" d="M538.926,367.978s16.49,6.7,12.765-35.307c-2.231-25.159-12.576-36.769-44.265-58.539s-131.8-32.912-155.588,25.291c-26.363-12.293-44.63,15.1-56.069,53.091-13.873,46.024-4.933,68.609,23.9,94.776S533.418,498.107,538.926,367.978Z" transform="translate(56.267 0)" fill="#191717"/>
    <path id="Path_861" data-name="Path 861" d="M296.8,389.935a125.9,125.9,0,0,0,42.846,95.58,15.709,15.709,0,0,0,6.8,2.563c32.615,8.375,99.03,9.048,132.932,0a16.016,16.016,0,0,0,6.8-2.563,125.906,125.906,0,0,0,42.85-95.58c0-68.044-51.99-123.187-116.109-123.187S296.8,321.87,296.8,389.935Z" transform="translate(75.412 26.258)" fill="#be7770" stroke="#191717" stroke-linecap="round" stroke-linejoin="round" stroke-width="3"/>
    <ellipse id="Ellipse_99" data-name="Ellipse 99" cx="21.057" cy="20.714" rx="21.057" ry="20.714" transform="translate(418.234 393.99)" fill="#fff"/>
    <ellipse id="Ellipse_100" data-name="Ellipse 100" cx="13.97" cy="13.912" rx="13.97" ry="13.912" transform="translate(423.948 400.792)" fill="#191717"/>
    <ellipse id="Ellipse_101" data-name="Ellipse 101" cx="21.057" cy="20.714" rx="21.057" ry="20.714" transform="translate(524.183 393.99)" fill="#fff"/>
    <ellipse id="Ellipse_102" data-name="Ellipse 102" cx="13.97" cy="13.912" rx="13.97" ry="13.912" transform="translate(529.9 400.792)" fill="#191717"/>
    <path id="Path_862" data-name="Path 862" d="M420.059,290.538a39.755,39.755,0,0,0-40.508-7.153c-22.982,9.33-27.854,39.768-26.135,59.068s11.221,41.6-4.272,44.208-21.309.214-21.309.214" transform="translate(155.338 62.202)" fill="none" stroke="#191717" stroke-linecap="round" stroke-linejoin="round" stroke-width="3"/>
    <path id="Path_863" data-name="Path 863" d="M356.979,283.9s-30.042-15.553-47.861,10.724" transform="translate(107.145 58.662)" fill="none" stroke="#191717" stroke-linecap="round" stroke-linejoin="round" stroke-width="3"/>
    <path id="Path_864" data-name="Path 864" d="M373.853,315.005s-20.411,8.4-50.432,0" transform="translate(143.971 150.505)" fill="none" stroke="#191717" stroke-linecap="round" stroke-linejoin="round" stroke-width="3"/>
    <path id="Path_180" data-name="Path 180" d="M381.008,328.8c-15.2-2.724-35.268,25.7-37.624,22.32-7.16-10.274-22.438-7.042-22.438-7.042s-29.6-.025-36.548,44.791c-3.45,22.231.937,42.214,25.505,51.15,28.733,10.449,44.108-3.575,44.108-3.575" transform="translate(40.842 185.54)" fill="#fff" stroke="#191717" stroke-linecap="round" stroke-linejoin="round" stroke-width="3"/>
    <path id="Path_865" data-name="Path 865" d="M343.815,449.138s5.748-12.154,24.8-6.613c-20.508-13.584-25.877-35.161-18.1-37.856s17.766,21.641,18.231,37.316c2.359-8.99,26.385-38.113,34.907-28.158S369.134,442.4,369.134,442.4s20.944-10.47,30.782,1.326,24.869-1.759,25.023-6.327" transform="translate(196.479 380.831)" fill="none" stroke="#191717" stroke-linecap="round" stroke-linejoin="round" stroke-width="3"/>
    <path id="Path_857-2" data-name="Path 857" d="M335.331,451.765c14.5,7.914,23.625,3.628,34.128,13.133,6.753,6.113,24.662,11.064,26.524-12.737l5.38-68.777c1.516-19.35-7.335-11.843-55.4-9.141-28.572,1.587-1.627,20.783-9.262,41.581S325.279,446.561,335.331,451.765Z" transform="translate(158.967 293.474)" fill="#e82627" stroke="#191717" stroke-linecap="round" stroke-linejoin="round" stroke-width="3"/>
    <path id="Path_858" data-name="Path 858" d="M315.134,464.162c37.095,7.893,104.309,9.62,118.976,6.084a7.04,7.04,0,0,0,4.282-6.095c2.474-16.007,2.974-45.752,4.883-71.78.851-11.6-5.137-8.34-7.2-8.093-27.911-6.131-46.9-10.141-69.449-14.116-22.907-4.039-48.666-11.571-64.544,4.812S278.043,456.269,315.134,464.162Z" transform="translate(54.583 278.908)" fill="#003586" stroke="#191717" stroke-linecap="round" stroke-linejoin="round" stroke-width="3"/>
    <path id="Path_865-2" data-name="Path 865" d="M372.748,376.124s-12.565,4.779-8.529,24.2c-11.943-21.505-33.034-28.54-36.329-21s20.19,19.4,35.782,21.083c-9.148,1.651-40.054,23.332-30.8,32.6s31.182-32.179,31.182-32.179-12.072,20.065-1.079,30.792-3.693,24.655-8.261,24.451" transform="translate(154.67 307.867)" fill="none" stroke="#191717" stroke-linecap="round" stroke-linejoin="round" stroke-width="3"/>
    <path id="Path_181" data-name="Path 181" d="M300.6,334.986a46.225,46.225,0,0,1,18.456,29.5" transform="translate(85.204 201.949)" fill="none" stroke="#191717" stroke-linecap="round" stroke-linejoin="round" stroke-width="3"/>
    <path id="Path_182" data-name="Path 182" d="M348.139,328.811c15.2-2.724,33.52,22.685,37.624,22.32,29.241-2.574,58.41,7.972,66.675,38.8,5.83,21.727-.379,39.372-24.948,48.308-28.733,10.449-52.355-1.787-52.355-1.787" transform="translate(207.612 185.525)" fill="#fff" stroke="#191717" stroke-linecap="round" stroke-linejoin="round" stroke-width="3"/>
    <path id="Path_183" data-name="Path 183" d="M365.227,334.909s-11.071,17.873-9.283,37.745" transform="translate(227.203 201.751)" fill="none" stroke="#191717" stroke-linecap="round" stroke-linejoin="round" stroke-width="3"/>
    <path id="Path_184" data-name="Path 184" d="M294.19,333.34c-10.224,12.075-19.518,46.4-8.3,54.671s27.561,13.7,44.762,9.233,35.389-30.585,15.128-58.829C334.449,322.623,305.544,319.931,294.19,333.34Z" transform="translate(34.182 175.556)" fill="#be7770" stroke="#191717" stroke-linecap="round" stroke-linejoin="round" stroke-width="3"/>
    <path id="Path_185" data-name="Path 185" d="M371.476,343.219c-10.224,12.075,31.118,21.352-12.973,58.721,11.21,8.268,27.561,13.705,44.762,9.237s35.389-30.585,15.128-58.832C407.065,336.555,382.829,329.806,371.476,343.219Z" transform="translate(234.296 204.684)" fill="#be7770" stroke="#191717" stroke-linecap="round" stroke-linejoin="round" stroke-width="3"/>
    <path id="Path_186" data-name="Path 186" d="M307.278,388.7c-11.489-10.9-6.688-28.8-6.688-28.8s1.358-12.186-9.058-23.057c-7.36-7.678,1.376-22.413,14.653-11.782,10.763,8.615,20.658,24.8,20.658,24.8" transform="translate(54.958 166.826)" fill="#be7770" stroke="#191717" stroke-linecap="round" stroke-linejoin="round" stroke-width="3"/>
    <path id="Path_187" data-name="Path 187" d="M288.9,342.923c-8.3,2.134-6.874,18.692,5.173,19.618s23.193-2.949,21.806-10.527S308.832,337.8,288.9,342.923Z" transform="translate(41.585 217.73)" fill="#be7770" stroke="#191717" stroke-linecap="round" stroke-linejoin="round" stroke-width="3"/>
    <path id="Path_188" data-name="Path 188" d="M287.555,337.928c-9.805,1.348-11.646,18.231,1.755,20.34s26.774-.719,26.789-8.515S311.112,334.69,287.555,337.928Z" transform="translate(31.48 207.49)" fill="#be7770" stroke="#191717" stroke-linecap="round" stroke-linejoin="round" stroke-width="3"/>
    <path id="Path_189" data-name="Path 189" d="M288.138,332.869c-9.73,1.812-10.767,18.764,2.717,20.236s26.714-1.991,26.356-9.78S311.513,328.518,288.138,332.869Z" transform="translate(34.182 193.06)" fill="#be7770" stroke="#191717" stroke-linecap="round" stroke-linejoin="round" stroke-width="3"/>
    <path id="Path_190" data-name="Path 190" d="M281.216,334.547,393.7,373.382s47.415,31.036,54.882,9.605c4.225-12.132-20.529-21.809-48.884-17.977-16.44-5.863-96.037-34.9-114.533-41.652a5.9,5.9,0,0,0-6.52,1.73h0A5.93,5.93,0,0,0,281.216,334.547Z" transform="translate(25.011 171.092)" fill="#fff" stroke="#191717" stroke-linecap="round" stroke-linejoin="round" stroke-width="3"/>
    <path id="Path_191" data-name="Path 191" d="M397.907,337.949s-27.786-2.931-40.633,6.377-3.914,23.947,8.175,16.858,18.5-5.941,18.5-5.941c9.984,2.563,10.352,18.867-5.92,20.594s-14.939,19.157,2.3,18.542,35.35-7.271,37.066-17.634" transform="translate(214.949 208.452)" fill="#be7770" stroke="#191717" stroke-linecap="round" stroke-linejoin="round" stroke-width="3"/>
    <path id="Path_192" data-name="Path 192" d="M364.171,374.406s32.022.125,34.256-24" transform="translate(248.889 241.641)" fill="#be7770" stroke="#191717" stroke-linecap="round" stroke-linejoin="round" stroke-width="3"/>
    <path id="Path_193" data-name="Path 193" d="M291.77,325.035c-10.924-1.577-18.27,15.056-4.6,21.237s28.887,7.317,31.386-.615S318.012,328.82,291.77,325.035Z" transform="translate(31.483 176.058)" fill="#be7770" stroke="#191717" stroke-linecap="round" stroke-linejoin="round" stroke-width="3"/>
    <g id="Group_22" data-name="Group 22" transform="translate(267.503 639)">
      <path id="Path_194" data-name="Path 194" d="M684.539,589.34a10.724,10.724,0,0,1-10.492-8.565L637.747,404.2a24.152,24.152,0,0,0-23.568-19.214H348.6A24.152,24.152,0,0,0,325.034,404.2l-36.3,176.575a10.724,10.724,0,0,1-21.008-4.318l36.3-176.575A45.68,45.68,0,0,1,348.6,363.538H614.179a45.677,45.677,0,0,1,44.576,36.344l36.3,176.575a10.734,10.734,0,0,1-10.517,12.883Z" transform="translate(-267.503 -363.538)" fill="#fff" stroke="#191717" stroke-miterlimit="10" stroke-width="3"/>
    </g>
    <rect id="Rectangle_18" data-name="Rectangle 18" width="406.322" height="43.467" transform="translate(278.23 606.256)" fill="#f4f06e" stroke="#191717" stroke-linecap="round" stroke-linejoin="round" stroke-width="3"/>
    <path id="Path_195" data-name="Path 195" d="M387.33,347.819,307.053,346.8a3.253,3.253,0,0,0-2.949,4.715h0a40.669,40.669,0,0,0,36.322,22.374h93.807a40.665,40.665,0,0,0,36.322-22.374h0a3.252,3.252,0,0,0-2.946-4.715Z" transform="translate(93.331 232.367)" fill="#fff" stroke="#191717" stroke-miterlimit="10" stroke-width="3"/>
    <path id="Path_196" data-name="Path 196" d="M314.618,372.878a4.565,4.565,0,0,1-4.293-6.134c3.21-8.526,10.667-23.386,24.622-27.311,19.9-5.594,51.833-2.288,63,8.937a59.6,59.6,0,0,1,12.265,18.413,4.568,4.568,0,0,1-4.24,6.334Z" transform="translate(109.505 206.529)" fill="#fff" stroke="#191717" stroke-linecap="round" stroke-linejoin="round" stroke-width="3"/>
    <path id="Path_197" data-name="Path 197" d="M331.287,345.222s10.563-16.272,22.313-7.189,17.784-1.183,25.38,7.189,19.882,17.541,5.809,31.725H346.208a12.291,12.291,0,0,1-12.186-10.706Z" transform="translate(164.223 202.698)" fill="#7ff4ce" stroke="#191717" stroke-linecap="round" stroke-linejoin="round" stroke-width="3"/>
    <path id="Path_198" data-name="Path 198" d="M313.479,351.662a1.416,1.416,0,0,1,.129-1.416,4.1,4.1,0,0,1,1.087-1.015,4.285,4.285,0,0,1,2.191-1,3.221,3.221,0,0,0,1.037-.082,1.357,1.357,0,0,0,.715-1.23c.029-.5-.1-1-.111-1.5a3.293,3.293,0,0,1,3.771-3.332" transform="translate(118.02 220.151)" fill="none" stroke="#191717" stroke-linecap="round" stroke-linejoin="round" stroke-width="3"/>
    <path id="Path_199" data-name="Path 199" d="M318.2,342.666a4.238,4.238,0,0,1,6.577-1.88" transform="translate(130.523 214.603)" fill="none" stroke="#191717" stroke-linecap="round" stroke-linejoin="round" stroke-width="3"/>
    <path id="Path_200" data-name="Path 200" d="M322.071,343.093a4.3,4.3,0,0,1,4.783-1.519,2.029,2.029,0,0,1,.9.565c.411.493.507,1.312,1.119,1.516" transform="translate(140.495 218.351)" fill="none" stroke="#191717" stroke-linecap="round" stroke-linejoin="round" stroke-width="3"/>
    <path id="Path_201" data-name="Path 201" d="M325.986,341.149a1.273,1.273,0,0,1,1.008-1.48,2.194,2.194,0,0,1,1.841.6" transform="translate(150.475 213.917)" fill="none" stroke="#191717" stroke-linecap="round" stroke-linejoin="round" stroke-width="3"/>
    <path id="Path_202" data-name="Path 202" d="M327.357,342.9a2.41,2.41,0,0,1,2.206.543,2.018,2.018,0,0,1,.661,1.777" transform="translate(154.104 222.132)" fill="none" stroke="#191717" stroke-linecap="round" stroke-linejoin="round" stroke-width="3"/>
    <path id="Path_203" data-name="Path 203" d="M319.347,345.145a5.782,5.782,0,0,1,4.583-.45" transform="translate(133.481 226.229)" fill="none" stroke="#191717" stroke-linecap="round" stroke-linejoin="round" stroke-width="3"/>
    <path id="Path_204" data-name="Path 204" d="M336.874,361.942s10.3-13.183,11.41-20.837" transform="translate(178.608 217.704)" fill="none" stroke="#191717" stroke-linecap="round" stroke-linejoin="round" stroke-width="3"/>
    <path id="Path_205" data-name="Path 205" d="M338.654,350.676c4.057-1.2,8.44-.951,12.49-2.181,3.768-1.144,7.031-3.5,10.216-5.812" transform="translate(183.191 221.767)" fill="none" stroke="#191717" stroke-linecap="round" stroke-linejoin="round" stroke-width="3"/>
    <path id="Path_206" data-name="Path 206" d="M347,356.4a11.8,11.8,0,0,0-3.825-4.032,28.289,28.289,0,0,1-3.761-2.377c-1.887-1.7-2.588-4.368-2.742-6.9a11.591,11.591,0,0,0-.726-4.6" transform="translate(176.216 210.982)" fill="none" stroke="#191717" stroke-linecap="round" stroke-linejoin="round" stroke-width="3"/>
    <path id="Path_207" data-name="Path 207" d="M344.4,352.592a2.6,2.6,0,0,0-1.172-1.662,51.251,51.251,0,0,0-4.354-3.307,16.3,16.3,0,0,1-2.617-1.891,3.878,3.878,0,0,1-1.283-2.863" transform="translate(173.702 222.246)" fill="none" stroke="#191717" stroke-linecap="round" stroke-linejoin="round" stroke-width="3"/>
    <path id="Path_208" data-name="Path 208" d="M341.926,353.068q1.989-6.274,4.583-12.329" transform="translate(191.615 216.762)" fill="none" stroke="#191717" stroke-linecap="round" stroke-linejoin="round" stroke-width="3"/>
    <path id="Path_209" data-name="Path 209" d="M343.519,343.716c-.082.172.1.347.254.45a18.4,18.4,0,0,0,5.312,2.381,2.666,2.666,0,0,0,2.034-.039" transform="translate(195.663 224.427)" fill="none" stroke="#191717" stroke-linecap="round" stroke-linejoin="round" stroke-width="3"/>
  </g>
</svg>
