<svg xmlns="http://www.w3.org/2000/svg" width="278.151" height="50.267" viewBox="0 0 278.151 50.267">
  <g id="Group_796" data-name="Group 796" transform="translate(-669.073 -889.166)">
    <path id="Path_8885" data-name="Path 8885" d="M670.656,936.167s20.078,1.147,28.109-20.365c6.728-18.022,10.808-26.513,16.923-24.954,7.314,1.864,4.3,18.644-9.465,21.225" transform="translate(0 0)" fill="none" stroke="#191717" stroke-linecap="round" stroke-miterlimit="10" stroke-width="3"/>
    <path id="Path_8886" data-name="Path 8886" d="M763.563,965.3c6.31,0,7.458,10.326,2.742,18.13-4.4,7.281-11.634,8.259-15.649,3.956" transform="translate(-57.054 -53.226)" fill="none" stroke="#191717" stroke-linecap="round" stroke-miterlimit="10" stroke-width="3"/>
    <path id="Path_8887" data-name="Path 8887" d="M774.656,936.741s4.589-.287,12.477-7.6c6.544-6.068,13.929-15.785,20.8-15.3,8.079.574,6.741,8.987,5.306,12.716s-4,10.182.669,10.182,13.481-10.756,16.732-19.648,9.561-26.427,13.863-26.427-2.791,20.432-11.216,31.82" transform="translate(-74.17)" fill="none" stroke="#191717" stroke-linecap="round" stroke-miterlimit="10" stroke-width="3"/>
    <line id="Line_169" data-name="Line 169" x1="14.944" y2="8.109" transform="translate(759.114 914.376)" fill="none" stroke="#191717" stroke-linecap="round" stroke-miterlimit="10" stroke-width="3"/>
    <path id="Path_8888" data-name="Path 8888" d="M979.054,924.212c6.406-3.192,10.679-.006,8.276,4.288-7.386,13.194,4.087,14.989,14.211.228,5.014-7.31,9.989-13.152,16.982-12.8,8.089.405,7.739,7.277,4.4,12.893-8.211,13.8,14.012,16.92,22.651-5.613,3.383-8.823-6.971-12.562-9.983,0-1.9,7.938.311,16.818,7.816,15.618,10.613-1.7,23.837-23.455,29.052-35.351s.574-15.674-7.027,0-13.347,35.628-4.456,34.993c1.437-.1,4.5-1.019,8.6-7.529,4.525-7.175,9.569-15.857,16.436-15.369,8.079.574,6.741,8.987,5.306,12.716s-1.184,10.182,3.487,10.182,13.427-10.776,16.732-19.648c2.4-6.454-5.34-6.262-3.461-1.023.47,1.311,1.036,1.931,3.975,5.23,1.693,1.9,5.337,6.209,5.668,9.943.622,7.006-8.147,7.848-10.82,4" transform="translate(-219.94 -1.727)" fill="none" stroke="#191717" stroke-linecap="round" stroke-miterlimit="10" stroke-width="3"/>
    <path id="Path_8889" data-name="Path 8889" d="M1306.5,995.7c-2.917,4.2-5.565,13.669,1.089,16.3,7.244,2.87,13.737-6.716,15.925-13.7" transform="translate(-451.28 -74.908)" fill="none" stroke="#191717" stroke-linecap="round" stroke-miterlimit="10" stroke-width="3"/>
    <path id="Path_8890" data-name="Path 8890" d="M1493.8,994.633c-2.917,4.2-5.867,13.975.787,16.611,7.244,2.87,13.963-6.813,16.151-13.795" transform="translate(-584.729 -74.146)" fill="none" stroke="#191717" stroke-linecap="round" stroke-miterlimit="10" stroke-width="3"/>
    <path id="Path_8891" data-name="Path 8891" d="M1066.2,995.975c-3.209,3.786-5.348,13.135,1.962,15.869,6.547,2.448,14.2-6.193,16.464-13.628" transform="translate(-279.973 -75.103)" fill="none" stroke="#191717" stroke-linecap="round" stroke-miterlimit="10" stroke-width="3"/>
    <path id="Path_8892" data-name="Path 8892" d="M839.044,996.333c-3.209,3.786-5.576,13.032,1.734,15.766,6.547,2.448,14.829-6.248,17.094-13.683" transform="translate(-117.892 -75.358)" fill="none" stroke="#191717" stroke-linecap="round" stroke-miterlimit="10" stroke-width="3"/>
    <path id="Path_8893" data-name="Path 8893" d="M1096.484,973.329c-4.78,1.782-6.418,6.5-3.129,9.6,2.5,2.364,11.053,2.391,12.078-4.032" transform="translate(-300.229 -58.953)" fill="none" stroke="#191717" stroke-linecap="round" stroke-miterlimit="10" stroke-width="3"/>
    <path id="Path_8894" data-name="Path 8894" d="M1443.673,995.076c1.437-.1,6.688-.952,11.008-8.29,4.3-7.309,9.569-15.857,16.435-15.369,8.079.574,6.74,8.987,5.306,12.716s-1.184,10.182,3.487,10.182,13.964-10.594,16.732-19.648" transform="translate(-551.292 -57.574)" fill="none" stroke="#191717" stroke-linecap="round" stroke-miterlimit="10" stroke-width="3"/>
  </g>
</svg>
