<svg xmlns="http://www.w3.org/2000/svg" width="34" height="34" viewBox="0 0 34 34">
  <path id="icon" d="M4.98,29.02A17,17,0,1,1,29.02,4.98,17,17,0,1,1,4.98,29.02ZM17,30.909a13.853,13.853,0,0,0,9.217-3.5c-.46-1.622-3.709-2.681-9.217-2.681S8.244,25.787,7.785,27.41A13.853,13.853,0,0,0,17,30.909ZM3.091,17a13.833,13.833,0,0,0,2.477,7.915C7.31,22.622,11.4,21.637,17,21.637s9.69.985,11.432,3.278A13.907,13.907,0,1,0,3.091,17Zm9.521,2.76a8.646,8.646,0,0,1-1.793-5.85,6.244,6.244,0,0,1,1.687-4.391A6.084,6.084,0,0,1,17,7.728a5.986,5.986,0,0,1,4.491,1.925,6.728,6.728,0,0,1,1.691,4.565,8.168,8.168,0,0,1-1.805,5.611A5.75,5.75,0,0,1,17,21.637,5.641,5.641,0,0,1,12.612,19.76Zm1.3-5.85c0,3.12,1.011,4.636,3.091,4.636s3.091-1.416,3.091-4.327A3.115,3.115,0,0,0,17,10.819,2.867,2.867,0,0,0,13.909,13.909Z" fill="#1c1c1b"/>
</svg>
