<svg xmlns="http://www.w3.org/2000/svg" width="34.213" height="34.089" viewBox="0 0 34.213 34.089">
  <path id="Mask" d="M23.863,34.089A5.12,5.12,0,0,1,19.04,30.68H15.049a5.115,5.115,0,0,1-9.644,0l-.388,0A5.27,5.27,0,0,1,1.56,29.115,5.5,5.5,0,0,1,0,25.568l0-1.79A5.323,5.323,0,0,1,5.1,18.75L3.425,7.06l-.017-.242A4.864,4.864,0,0,0,2.2,3.761,4.322,4.322,0,0,0,0,3.409V0C2.227,0,3.693.43,4.614,1.351a7.4,7.4,0,0,1,1.453,2.16,3.871,3.871,0,0,1,.873-.1l23.81,1.7A3.745,3.745,0,0,1,33.819,6.7a2.549,2.549,0,0,1,.122,2.523c-.194.432-1.051,2.161-2.548,5.139-.588,1.17-1.19,2.369-1.795,3.565l-.583,1.157-.116.23,0,.01-.058.115a4.455,4.455,0,0,1-2.816,2.643l-.252.08H8.563l-3.366,0a1.862,1.862,0,0,0-1.789,1.707l0,1.6a1.924,1.924,0,0,0,1.707,1.807H5.4a5.115,5.115,0,0,1,9.644,0H19.04a5.114,5.114,0,1,1,4.823,6.817Zm0-6.817a1.7,1.7,0,1,0,1.7,1.7A1.707,1.707,0,0,0,23.863,27.272Zm-13.636,0a1.7,1.7,0,1,0,1.7,1.7A1.706,1.706,0,0,0,10.227,27.272ZM6.836,6.819,8.506,18.511a.288.288,0,0,0,.209.238H25.173a1.055,1.055,0,0,0,.494-.575l.083-.193.221-.437.583-1.155c.6-1.193,1.206-2.392,1.769-3.511l.025-.049c.995-1.98,1.739-3.472,2.152-4.314Z" fill="#1c1c1b"/>
</svg>
