<svg xmlns="http://www.w3.org/2000/svg" width="37.263" height="34.089" viewBox="0 0 37.263 34.089">
  <path id="icon" d="M18.631,34.089h0l-1.466-.759a48.2,48.2,0,0,1-8.951-6.348A29.357,29.357,0,0,1,2.1,19.648,15.528,15.528,0,0,1,0,12.06,12.766,12.766,0,0,1,3.092,3.474,10.4,10.4,0,0,1,10.933,0a12.158,12.158,0,0,1,5.872,1.233,10.739,10.739,0,0,1,1.809,1.131A10.5,10.5,0,0,1,20.5,1.178,12.106,12.106,0,0,1,26.343,0a10.434,10.434,0,0,1,7.813,3.512,12.724,12.724,0,0,1,3.106,8.548,15.53,15.53,0,0,1-2.1,7.588,29.361,29.361,0,0,1-6.11,7.334A48.24,48.24,0,0,1,20.1,33.33l-1.467.759Zm-7.7-30.7c-4.372,0-7.546,3.647-7.546,8.672,0,4,2.386,8.172,7.092,12.4a44.956,44.956,0,0,0,8.153,5.811,45.025,45.025,0,0,0,8.154-5.811c4.7-4.233,7.09-8.406,7.09-12.4,0-4.926-3.241-8.654-7.538-8.672a8.843,8.843,0,0,0-4.349.834A7.164,7.164,0,0,0,19.871,5.8l-1.235,1.34L17.389,5.816A7.244,7.244,0,0,0,15.3,4.27,8.849,8.849,0,0,0,10.933,3.387Z" fill="#1c1c1b"/>
</svg>
